<?xml version="1.0" standalone="no"?>
<!DOCTYPE svg PUBLIC "-//W3C//DTD SVG 1.1//EN" "http://www.w3.org/Graphics/SVG/1.1/DTD/svg11.dtd" >
<svg xmlns="http://www.w3.org/2000/svg">
<metadata></metadata>
<defs>
<font id="frizquadratathin" horiz-adv-x="1011" >
<font-face units-per-em="2048" ascent="1638" descent="-410" />
<missing-glyph horiz-adv-x="866" />
<glyph horiz-adv-x="2048" />
<glyph horiz-adv-x="2048" />
<glyph unicode="&#xd;" horiz-adv-x="681" />
<glyph unicode=" "  horiz-adv-x="866" />
<glyph unicode="&#x09;" horiz-adv-x="866" />
<glyph unicode="&#xa0;" horiz-adv-x="866" />
<glyph unicode="!" horiz-adv-x="546" d="M66 1257h245q43 0 43 -24v-33l-43 -876h-145l-29 788q0 98 -71 145zM123 90q0 70 39 100.5t92 30.5q45 0 81 -39t36 -92q-2 -51 -41 -79.5t-84 -28.5q-49 0 -86 30.5t-37 77.5z" />
<glyph unicode="&#x22;" horiz-adv-x="512" d="M90 848v381h103v-381h-103zM293 848v381h102v-381h-102z" />
<glyph unicode="#" horiz-adv-x="1046" d="M51 438v121h246l14 158h-217v117h232l59 409h133l-57 -409h160l57 409h131l-59 -409h192v-117h-221l-14 -158h188v-121h-203l-57 -434h-131l57 434h-162l-59 -434h-129l57 434h-217zM414 559h176l16 158h-178z" />
<glyph unicode="$" horiz-adv-x="1046" d="M123 922q0 252 338 292v160h114v-160q129 0 220 -43v-202q-113 109 -220 129v-365q203 -115 254 -155q113 -96 113 -254q0 -115 -109.5 -217.5t-257.5 -102.5v-160h-114v160l-324 29v217q4 -4 32 -24.5t51.5 -35t60 -33t83 -28.5t97.5 -10v454q-16 10 -88 45t-118 64 t-89 93.5t-43 146.5zM287 938q0 -88 174 -147v307q-14 -6 -52 -20.5t-55 -22.5q-8 -8 -20 -19.5t-19.5 -17.5t-12.5 -15.5t-5 -19.5q-10 -31 -10 -45zM575 119q74 10 124.5 63.5t50.5 110.5q0 76 -42 140.5t-133 94.5v-409z" />
<glyph unicode="%" horiz-adv-x="1468" d="M14 848q0 115 30 200t78 128t94 62t89 19q145 0 226 -114.5t81 -268.5q0 -156 -79.5 -272.5t-213.5 -116.5q-109 0 -202 88.5t-103 274.5zM145 862q25 -289 174 -289q78 0 120 85t42 204q0 123 -46 216t-130 93q-74 0 -117 -90t-43 -219zM362 4l603 1225h114l-598 -1225 h-119zM815 338q0 207 99.5 308.5t209.5 101.5h6q133 0 212 -120t79 -276q0 -150 -73.5 -259t-208.5 -118h-27q-131 0 -209 104.5t-88 258.5zM950 367q0 -113 49.5 -211.5t124.5 -98.5l6 2q6 2 9 2q74 8 114.5 87t40.5 186q0 119 -48 215t-122 96q-158 1 -174 -278z" />
<glyph unicode="&#x26;" horiz-adv-x="1468" d="M86 324q0 117 60.5 211t187.5 198q-68 47 -107 116t-39 136q0 104 78 181t209 77h21q115 0 186.5 -75.5t71.5 -182.5q0 -164 -156 -268q23 -20 125 -118.5t145 -137.5t140.5 -124t163 -132t157.5 -104.5t176 -96.5h-266q-31 0 -64.5 8t-59 19.5t-61.5 33t-55.5 35 t-58.5 41t-51 37.5q-41 -78 -144.5 -144.5t-232.5 -66.5q-152 0 -295 94q-131 105 -131 263zM291 319q0 -67 43 -126q94 -94 198 -95q80 0 158 47.5t125 104.5l-366 366q-158 -158 -158 -297zM354 1012q0 -82 127 -193q117 76 117 193q-25 100 -131 100q-49 -4 -81 -32.5 t-32 -67.5z" />
<glyph unicode="'" horiz-adv-x="546" d="M123 1167q0 41 33.5 73t83.5 32h14q47 -4 75.5 -43t28.5 -90q0 -59 -32 -113q-82 -145 -133 -145q-27 0 -56 41q102 74 103 147q-53 0 -85 29.5t-32 68.5z" />
<glyph unicode="(" horiz-adv-x="583" d="M84 504q0 352 260 725h121q-236 -389 -236 -721q0 -350 236 -752h-135q-246 420 -246 748z" />
<glyph unicode=")" horiz-adv-x="583" d="M39 -244q113 137 171 326.5t58 392.5q0 438 -229 754h131q104 -141 177 -337t73 -411q0 -383 -250 -725h-131z" />
<glyph unicode="*" horiz-adv-x="780" d="M94 969l58 157q61 -78 174 -100q0 102 -43 188h159q-43 -86 -43 -188q111 20 176 86l60 -129q-137 0 -207 -45q90 -90 147 -119l-114 -86q-18 41 -49 96.5t-41 75.5q-57 -80 -88 -172l-131 86q29 8 50 19.5t36.5 28t23.5 26.5t19.5 31.5t15.5 27.5q-63 18 -137 19 q-47 0 -66 -2z" />
<glyph unicode="+" horiz-adv-x="1120" d="M117 381v104h364v392h117v-392h367v-104h-367v-377h-117v377h-364z" />
<glyph unicode="," horiz-adv-x="546" d="M109 -199q18 23 48.5 58t46 53t31 39.5t19.5 38.5q-4 2 -27.5 8t-33 11t-25.5 18.5t-23.5 36t-7.5 55.5q2 43 35 68.5t74 25.5q45 0 82 -28.5t43 -80.5v-20q0 -82 -58.5 -169t-101.5 -114h-102z" />
<glyph unicode="-" horiz-adv-x="700" d="M10 381l117 119q2 2 7 8t9 8t12.5 6t23 5t34.5 1h266q49 0 129 31l15 -16l-101 -105q-20 -31 -42.5 -37t-78.5 -6h-217q-86 0 -159 -28z" />
<glyph unicode="." horiz-adv-x="546" d="M133 117q0 49 36 76.5t85 27.5q47 0 89 -32.5t42 -84.5q0 -55 -38 -86.5t-87 -31.5q-47 0 -84 28.5t-39 75.5q0 4 -2 13.5t-2 13.5z" />
<glyph unicode="/" horiz-adv-x="743" d="M-10 -258l583 1487h144l-584 -1487h-143z" />
<glyph unicode="0" horiz-adv-x="1046" d="M8 559q0 141 26.5 263t81 221.5t150.5 156.5t223 57q229 0 369.5 -177t140.5 -464q0 -270 -129 -462.5t-348 -192.5h-18q-154 0 -267.5 93t-167 224t-61.5 281zM211 616q10 -229 96 -370.5t211 -141.5l4 -2q111 0 180.5 154t69.5 356q0 127 -28.5 234.5t-93 179.5 t-154.5 72h-7q-127 0 -202.5 -147t-75.5 -335z" />
<glyph unicode="1" horiz-adv-x="1046" d="M211 997q59 25 111.5 53.5t85 51t71.5 58.5t55.5 53.5t52.5 60.5t48 57v-1138q0 -102 86 -189h-395q102 80 102 203v790h-217z" />
<glyph unicode="2" horiz-adv-x="1046" d="M51 18l496 715q80 104 80 205q0 72 -50.5 116t-148.5 44q-147 0 -334 -115l117 231q111 47 227 48q166 0 292 -81t126 -206q0 -90 -61 -184l-424 -627q119 -31 231 -31q117 0 226.5 25.5t170.5 62.5l-104 -217h-829z" />
<glyph unicode="3" horiz-adv-x="1046" d="M51 221q174 -102 348 -102q125 0 211 61.5t97 186.5q0 109 -62.5 175t-245.5 66q-59 0 -131 -6v146q86 -12 90 -13q109 0 195 50.5t86 127.5q0 47 -18 84q-47 109 -207 109q-150 0 -305 -94l88 202q18 12 88.5 25.5t148.5 13.5q102 0 187.5 -21.5t151 -89t65.5 -173.5 q0 -184 -203 -267q63 -18 105 -36.5t90.5 -54.5t73 -94t24.5 -136v-29q-6 -129 -95.5 -217t-204 -124t-243.5 -36h-45l-203 15z" />
<glyph unicode="4" horiz-adv-x="1046" d="M-37 264l569 965h263v-834q154 0 249 76l-102 -221h-147v-100q0 -80 86 -146h-363q88 45 88 129v117h-629zM225 410l381 -15v688z" />
<glyph unicode="5" horiz-adv-x="1046" d="M80 193q129 -70 301 -70q147 0 250.5 58.5t103.5 172.5v41q-16 119 -109.5 175.5t-224.5 56.5q-150 0 -278 -54l43 656h672v-232q-53 80 -334 80q-96 0 -178 -8l-15 -307q84 20 174 20q190 0 323.5 -104.5t133.5 -276.5v-34q-8 -111 -60.5 -191t-135 -122t-171 -60.5 t-184.5 -18.5q-129 0 -239 29z" />
<glyph unicode="6" horiz-adv-x="1046" d="M23 485q4 152 64 280t150.5 212t205 146.5t220 93t203.5 40.5l-102 -131q-45 -6 -114.5 -38.5t-145.5 -86t-145.5 -136.5t-104.5 -177q-37 -100 -37 -192q0 -162 86 -284t215 -122t191.5 59.5t85.5 202.5v43q0 109 -73 194t-200 85q-96 0 -225 -58l131 160q76 33 156 33 q158 0 279.5 -110.5t121.5 -303.5q0 -170 -114.5 -297t-338.5 -137q-121 4 -215 46t-148 101.5t-89 133t-46 133t-11 110.5z" />
<glyph unicode="7" horiz-adv-x="1046" d="M94 997l86 232h805l-438 -1022q-2 -10 -17.5 -55.5t-15.5 -67.5q0 -51 47 -80h-321l467 1065q-150 29 -242 29q-207 0 -371 -101z" />
<glyph unicode="8" horiz-adv-x="1046" d="M8 319q0 102 73 189.5t202 122.5q-117 57 -178.5 137t-61.5 160q0 125 126 220t310 95h25q195 0 316.5 -94t121.5 -217q0 -82 -59.5 -156t-175.5 -117q139 -37 222 -135t83 -209q0 -139 -130 -241.5t-378 -112.5h-23q-219 0 -346 108.5t-127 249.5zM203 330 q0 -96 89 -168t212 -72q4 0 17.5 -2t19.5 -2q127 0 197.5 63.5t70.5 157.5q0 92 -102.5 156t-307.5 125q-98 -53 -147 -122t-49 -136zM254 938q0 -41 43 -81t90 -63.5t116 -52.5t87 -39q70 35 109.5 96.5t39.5 125.5q0 78 -62.5 133t-187.5 55q-129 0 -182 -42t-53 -132z " />
<glyph unicode="9" horiz-adv-x="1046" d="M23 805q0 207 144 322.5t337 115.5q227 0 361 -146.5t134 -338.5v-25q-14 -219 -141 -396t-317.5 -272.5t-403.5 -103.5l103 115q74 20 154.5 61t175 113t158 190.5t67.5 261.5q0 162 -87 286t-233 124q-115 0 -189.5 -90t-74.5 -188q0 -106 77 -201.5t197 -95.5 q106 0 222 79l-117 -163q-80 -47 -172 -47q-154 0 -274.5 112.5t-120.5 286.5z" />
<glyph unicode=":" horiz-adv-x="546" d="M119 90q0 2 2 8l2 6q0 53 35 85t82 32q45 0 79.5 -31.5t34.5 -85.5v-14q0 -51 -32.5 -77.5t-77.5 -26.5q-49 0 -87 28.5t-38 75.5zM123 602q0 51 33.5 75.5t83.5 24.5h20q41 0 76 -28.5t35 -71.5q0 -59 -37 -95t-84 -36q-49 0 -88 37t-39 94z" />
<glyph unicode=";" horiz-adv-x="546" d="M123 -170q100 66 131 160q-4 2 -15.5 5t-17.5 5t-16 6t-17.5 9t-15.5 11.5t-14 13.5t-11.5 16.5t-7.5 21.5t-2 26q2 51 40 82t83 31t79 -33.5t34 -93.5q0 -4 -1 -19.5t-1 -23.5q-43 -125 -93.5 -185.5t-97.5 -60.5l-43 15zM123 602q0 51 35 83t82 32q57 0 94 -34t37 -95 q0 -53 -35 -85t-82 -32q-51 0 -91 36t-40 95z" />
<glyph unicode="&#x3c;" horiz-adv-x="1120" d="M72 381v119l921 405v-114l-790 -353l790 -377v-116z" />
<glyph unicode="=" horiz-adv-x="1120" d="M102 250v117h863v-117h-863zM102 500v116h863v-116h-863z" />
<glyph unicode="&#x3e;" horiz-adv-x="1120" d="M-686 1055zM57 -39v115l801 362l-801 353v131l951 -437v-104z" />
<glyph unicode="?" horiz-adv-x="894" d="M23 1012l129 188q80 29 178 29q164 0 291 -88t127 -238q0 -70 -27 -141q-16 -45 -73.5 -103.5t-114 -103.5t-102.5 -104.5t-46 -112.5q0 -27 14 -59l-145 -15q-18 59 -18 90q0 72 34.5 127.5t123.5 135t110 100.5q51 63 51 135q0 94 -74.5 170t-183.5 76q-102 0 -274 -86 zM211 90q0 45 26.5 74t63.5 29h25q135 0 135 -103q-6 -59 -42 -91t-81 -32q-49 0 -88 35t-39 88z" />
<glyph unicode="@" horiz-adv-x="1314" d="M10 573q0 264 182.5 467t475.5 203q231 0 402 -137t181 -404q0 -188 -127 -329.5t-313 -151.5q-59 0 -91 20.5t-52 82.5q-68 -98 -189 -99q-90 0 -157.5 61.5t-67.5 162.5q0 8 2 26.5t2 24.5q23 188 137.5 335.5t272.5 147.5q123 0 159 -78l29 47h162l-207 -571 q-6 -31 -6 -37q0 -18 14.5 -30.5t32.5 -12.5q80 0 182.5 111.5t114.5 275.5v19q0 156 -144.5 296t-336.5 140q-88 0 -176.5 -31t-170 -92.5t-136 -174t-58.5 -257.5q0 -195 157.5 -353.5t383.5 -158.5q150 0 275.5 68.5t191.5 179.5h116q-102 -168 -232 -258.5t-351 -90.5 h-27q-262 0 -441.5 185.5t-189.5 412.5zM418 401q0 -78 76 -77l6 -5q74 0 175 189.5t101 302.5q0 66 -37 66h-18q-114 -1 -227 -232q-76 -160 -76 -244z" />
<glyph unicode="A" horiz-adv-x="1351" d="M0 4q133 92 160 203l352 891q10 31 10 51q0 45 -55 80h291l438 -1051q14 -31 33.5 -57.5t32 -39.5t40 -39t39.5 -38h-391q68 31 68 86q0 14 -4 30.5t-11.5 34t-9.5 23.5l-119 293h-454l-115 -321q-2 -6 -5 -18.5t-5 -21t-2 -12.5q0 -20 7 -32.5t32.5 -35t29.5 -26.5h-362 zM467 602h348l-174 453z" />
<glyph unicode="B" horiz-adv-x="1120" d="M57 4q45 33 59.5 63.5t14.5 96.5v905q0 125 -74 160h439q176 0 284.5 -80t108.5 -211q0 -78 -49 -145.5t-125 -90.5q59 -20 102 -40.5t91 -58.5t74 -98.5t26 -137.5q-4 -90 -43 -160t-91.5 -107t-121 -60.5t-121.5 -29.5t-105 -6h-469zM334 150q123 -16 180 -17 q272 0 272 207v27q0 239 -349 239h-3q-12 0 -47 -2t-53 -2v-452zM334 733q8 0 30.5 -2t34.5 -2q113 0 192 37t79 123v33q-8 51 -27.5 84.5t-41 52t-70 28t-84 10.5t-113.5 1v-365z" />
<glyph unicode="C" horiz-adv-x="1120" d="M14 573q0 129 30 243t98.5 217.5t199.5 163.5t313 60q174 0 353 -43v-217q-174 100 -367 101q-195 0 -302.5 -128t-107.5 -306q0 -94 32 -185.5t89.5 -166t149.5 -121t200 -46.5q6 0 21.5 2.5t19.5 2.5q70 0 133.5 15t104.5 31.5t115 53.5l-74 -217q-147 -51 -305 -51 q-276 0 -481.5 153t-221.5 438z" />
<glyph unicode="D" horiz-adv-x="1271" d="M47 4q51 31 68.5 74t17.5 115v862q0 41 -10 72.5t-14.5 40t-32.5 34.5l-29 27h453q319 0 509.5 -180.5t190.5 -409.5v-23q-4 -111 -43 -215t-113.5 -196t-204.5 -148.5t-296 -56.5q-8 0 -27.5 2t-30.5 2h-438zM324 150q55 -23 129 -23q82 0 165.5 23.5t165.5 70.5 t136.5 135t62.5 203v43q0 113 -31.5 199t-80 135t-117 78.5t-130 39t-130.5 9.5q-39 0 -98.5 -4t-71.5 -4v-905z" />
<glyph unicode="E" d="M90 4q74 72 74 160v848q0 47 -2 73.5t-19.5 64.5t-52.5 64h598q59 0 88 15v-232q-63 76 -268 76q-102 0 -156 -4v-336h176q102 0 131 15v-205q-37 59 -174 59h-133v-438q205 -31 260 -31q199 0 340 117l-104 -246h-758z" />
<glyph unicode="F" horiz-adv-x="780" d="M51 4q31 14 49.5 36.5t25.5 52.5t9 49.5t2 50.5v866q0 109 -71 155h555q115 0 129 15v-232q-53 80 -242 80q-88 0 -182 -22v-322h206q102 0 117 15v-205q-37 51 -200 51q-12 0 -123 -6v-395q0 -156 102 -189h-377z" />
<glyph unicode="G" horiz-adv-x="1271" d="M18 602q20 221 133 366.5t271 205t358 59.5q129 0 303 -33v-217q-133 113 -325 113q-201 0 -356.5 -132.5t-155.5 -342.5q0 -6 2 -17.5t2 -15.5q10 -137 65.5 -238.5t138.5 -154t170 -77t181 -24.5q109 0 221 39v277q0 84 -17.5 130t-70.5 76h291q-14 -29 -15 -131v-381 q0 -57 15 -86q-197 -57 -410 -57q-158 0 -295 36t-252.5 109.5t-183.5 200.5t-70 295z" />
<glyph unicode="H" horiz-adv-x="1351" d="M57 4q88 43 88 174v819q0 49 -2 78t-19.5 71t-51.5 68h348q-86 -43 -86 -202v-279h674v293q0 61 -26 114.5t-79 73.5h381q-4 -6 -33.5 -33.5t-42 -61.5t-12.5 -93v-848q0 -70 17.5 -106.5t70.5 -67.5h-366q90 35 90 160v424h-674v-410q0 -109 86 -174h-363z" />
<glyph unicode="I" horiz-adv-x="512" d="M61 4q37 12 70 55.5t33 104.5v891q0 123 -88 174h362q-45 -35 -65.5 -75t-20.5 -114v-876q0 -45 37 -97.5t82 -62.5h-410z" />
<glyph unicode="J" horiz-adv-x="512" d="M-70 -418q233 109 234 389v33v1079q0 68 -103 146h392q-37 -25 -56.5 -54.5t-29.5 -91.5v-1181q0 -82 -47.5 -146.5t-118 -100.5t-141 -54.5t-130.5 -18.5z" />
<glyph unicode="K" horiz-adv-x="1120" d="M43 4q37 16 51.5 27.5t25.5 40.5t11 78v876v68.5t-2 44t-4 28.5t-10.5 16.5t-15.5 13.5t-24.5 11.5t-31.5 20.5h363q-6 -6 -25 -22.5t-25 -26t-17 -28.5t-15.5 -47t-4.5 -65v-833q0 -143 101 -203h-377zM348 645l338 453q10 20 10 37q0 25 -19.5 52t-49.5 42h366 l-438 -555l381 -496q76 -104 217 -174h-188q-72 0 -139.5 37t-82.5 63z" />
<glyph unicode="L" d="M61 4q88 61 89 160v43v862q0 41 -6.5 66.5t-13.5 35t-24.5 25.5t-29.5 33h362q-4 -4 -24.5 -20.5t-30.5 -29t-20.5 -46t-10.5 -78.5v-891q35 -2 88.5 -8t93 -10.5t72.5 -4.5q184 0 332 109l-104 -246h-773z" />
<glyph unicode="M" horiz-adv-x="1699" d="M0 4q49 29 75.5 88.5t26.5 100.5l115 847q0 18 2 43t2 33q0 12 -1 22.5t-4 19.5t-5 14.5t-9 13.5t-11.5 12t-14.5 14.5t-16 16.5h321l393 -905l336 905h338q-80 -33 -80 -113q0 -6 3.5 -17.5t3.5 -15.5l116 -890q31 -156 117 -189h-395q90 23 90 156v33l-105 833 l-409 -1036q-76 18 -160 188l-367 848l-116 -833q0 -70 17.5 -109t70.5 -80h-334z" />
<glyph unicode="N" horiz-adv-x="1351" d="M43 4q4 4 26.5 19.5t27.5 19.5t20.5 19.5t19.5 28.5t11.5 35.5t11.5 51.5v834q0 49 -6.5 85t-23.5 59.5t-25.5 32.5t-34 24.5t-27.5 15.5h276l746 -950v747q0 180 -115 203h363q-10 -8 -39 -24.5t-38 -27t-22.5 -45t-17.5 -92.5v-1095q-41 0 -104.5 43t-98.5 88l-702 893 v-776q0 -74 22.5 -115t77.5 -74h-348z" />
<glyph unicode="O" horiz-adv-x="1468" d="M29 588q0 106 36.5 213.5t112.5 210t215 167t322 64.5q293 0 483.5 -168t204.5 -459q0 -109 -41 -220t-118 -210.5t-208 -162t-293 -62.5q-326 0 -508.5 174t-205.5 453zM258 631q0 -4 1 -15.5t1 -13.5q0 -215 145.5 -356.5t337.5 -141.5q195 0 317 138.5t122 326.5v33 q-12 201 -143.5 355.5t-338.5 154.5q-172 0 -307 -129t-135 -352z" />
<glyph unicode="P" d="M76 4q102 51 102 174v848q0 102 -19.5 140t-68.5 63h410q129 0 225 -31t146.5 -81t74 -103t23.5 -109v-20q0 -145 -130 -243.5t-237 -98.5q-147 0 -192 45q4 0 13 -2t11 -2q121 0 217.5 80.5t96.5 197.5q0 119 -75 174.5t-202 55.5q-35 0 -104 -9v-905q0 -125 104 -174 h-395z" />
<glyph unicode="Q" horiz-adv-x="1468" d="M10 635q0 4 2 12t2 12q0 66 24.5 144t79 158.5t130.5 146.5t190.5 107.5t247.5 41.5h29q297 0 483 -178t186 -463q0 -68 -35.5 -175t-116.5 -218.5t-181 -146.5q2 -2 47 -39t53 -44t51 -40t58.5 -43t57.5 -37t64.5 -37t62.5 -28.5t70.5 -25.5t69.5 -15.5t78 -10.5 q-94 -94 -231 -94q-131 0 -272.5 88t-315.5 240q-74 -18 -166 -19q-98 0 -192.5 24.5t-180.5 79t-151.5 130.5t-104.5 187.5t-39 242.5zM229 627q0 -4 1 -12.5t1 -12.5q6 -158 86 -276.5t181.5 -170t201.5 -51.5q2 0 11.5 -1t13.5 -1q178 0 310 138.5t132 361.5 q-10 252 -146 388t-335 136q-104 0 -205.5 -54t-176.5 -172t-75 -273z" />
<glyph unicode="R" d="M47 4q86 21 86 146v905q0 45 -3 76.5t-16.5 52t-16.5 25.5t-27 20l-23 14h410q197 0 315.5 -74.5t118.5 -230.5q0 -131 -88 -221t-201 -115q35 -43 107.5 -138t113.5 -145.5t103.5 -119t122 -115.5t122.5 -80h-202q-66 0 -114 22.5t-107 92.5l-381 512q182 68 251.5 118 t69.5 142v31q0 90 -61.5 139t-173.5 49q-55 0 -115 -12v-934q0 -117 86 -160h-377z" />
<glyph unicode="S" d="M33 250q172 -147 381 -148q102 0 181 41t93 107q4 18 4 51q0 109 -192 213l-207 102q-88 39 -162 115t-84 174q0 174 126 263t308 89h47q190 0 277 -43v-202q-57 43 -148.5 75.5t-171.5 32.5q-145 0 -206 -108q-18 -55 -19 -60q0 -57 60.5 -111.5t150.5 -92.5l203 -103 q55 -27 105 -61.5t96.5 -99t46.5 -132.5q0 -178 -149.5 -283.5t-373.5 -105.5q-160 0 -323 55z" />
<glyph unicode="T" horiz-adv-x="851" d="M-102 1026l59 231q14 -14 100 -14h729q57 0 103 14l-74 -231q-10 31 -56 51.5t-104 20.5h-174v-965q0 -16 5.5 -32.5t10.5 -25.5t20 -22.5t20.5 -17.5t25 -17.5t21.5 -13.5h-381q88 45 88 129v965h-146q-150 0 -247 -72z" />
<glyph unicode="U" horiz-adv-x="1271" d="M47 1243h334q-23 -23 -40 -70t-17 -90v-659q0 -88 26.5 -150.5t69.5 -94.5t88 -46t94 -14q150 0 236 68.5t86 179.5v659q0 150 -90 217h352q-74 -72 -74 -217v-848q0 -72 18.5 -112.5t69.5 -61.5h-276v115q-2 -2 -29 -30t-46.5 -40t-58 -33.5t-93 -31t-124.5 -9.5 q-125 0 -218 38t-142 102.5t-71.5 134t-22.5 145.5v688q0 88 -72 160z" />
<glyph unicode="V" horiz-adv-x="1120" d="M-57 1243h303q0 -4 -3 -12t-5 -17.5t-2 -17.5q0 -25 24 -113l309 -847l305 819q0 4 3.5 23.5t3.5 27.5q0 76 -80 137h309l-512 -1298l-117 88q-66 59 -104 160l-320 876q-49 125 -114 174z" />
<glyph unicode="W" horiz-adv-x="1736" d="M-25 1243h289q-6 -14 -6 -39q0 -16 9 -57t12 -64l280 -847l232 804q10 37 10 66q0 88 -68 137h279q-8 -29 -8 -53q0 -18 4 -40t10 -49.5t8 -45.5l260 -805l236 762q12 55 12 90q0 41 -17.5 71.5t-34 42t-46.5 27.5h305l-395 -1298q-59 25 -128 81t-92 107l-235 729 l-289 -917q-102 66 -161.5 130t-88.5 175l-248 805q-39 98 -129 188z" />
<glyph unicode="X" horiz-adv-x="1163" d="M-66 4l527 655l-309 453q-20 41 -51 67.5t-93 63.5h189q72 0 103.5 -19.5t53.5 -66.5l236 -352l219 293q25 39 25 61q0 63 -99 84h367l-424 -555l366 -555q29 -39 45.5 -58.5t48 -42t66.5 -28.5h-233q-66 0 -133 100l-291 439l-279 -379q-25 -45 -24 -70q0 -47 67 -90 h-377z" />
<glyph unicode="Y" d="M-84 1243h174q80 0 116 -25.5t73 -91.5l249 -424l248 367q14 27 15 61q0 39 -21.5 74t-52.5 39h366l-481 -700v-379q0 -92 100 -160h-378q86 44 86 146v393l-334 555q-35 72 -160 145z" />
<glyph unicode="Z" horiz-adv-x="1120" d="M0 4l670 1094q-106 18 -209 18q-268 0 -389 -104l88 231h848l-689 -1093q10 0 33 1t35 1q41 0 146.5 -9.5t166.5 -9.5q219 0 379 103l-100 -232h-979z" />
<glyph unicode="[" horiz-adv-x="583" d="M70 1229h424v-103h-193v-1282h193v-102h-410q57 57 57 131v1225q1 84 -71 131z" />
<glyph unicode="\" d="M104 1229h132l512 -1225h-132z" />
<glyph unicode="]" horiz-adv-x="583" d="M39 -141h190v1253h-190v102h426q-78 -53 -78 -145v-1094q0 -182 78 -219h-426v103z" />
<glyph unicode="^" horiz-adv-x="1120" d="M102 471l379 743h117l381 -743h-121l-317 627l-324 -627h-115z" />
<glyph unicode="_" horiz-adv-x="968" d="M-4 -127h936v-102h-936v102z" />
<glyph unicode="`" horiz-adv-x="546" d="M150 997q0 6 1 22.5t1 20.5q16 102 102 189q33 33 57.5 33t42.5 -19q-8 -10 -27.5 -35.5t-31.5 -43t-23.5 -37t-11.5 -29.5q0 -14 23 -15q43 -2 68.5 -33.5t25.5 -70.5q0 -41 -29 -71.5t-80 -30.5q-119 0 -118 120z" />
<glyph unicode="a" horiz-adv-x="894" d="M23 236q0 178 170 235q47 16 206 43q80 14 130.5 47t50.5 70q0 49 -76 86q-37 22 -100 22h-5q-43 0 -89 -10t-106.5 -31.5t-66.5 -23.5l146 188q12 0 52 4t64 4q47 0 91.5 -6t93.5 -25.5t83.5 -51t58.5 -85t24 -122.5v-301q0 -92 33.5 -133.5t125.5 -41.5l-86 -129 q-123 10 -185.5 58.5t-62.5 144.5v275q-27 -23 -90 -38.5t-119.5 -25.5t-103.5 -45t-51 -94q4 -68 57.5 -108t130.5 -40q51 0 148 31l-105 -143q-57 -8 -94 -8q-141 0 -233 75t-92 179z" />
<glyph unicode="b" d="M33 1214q8 0 44 -2t60 -2q137 0 156 33v-1110q82 -29 145 -29q129 0 226.5 77t97.5 229v43q-18 150 -92 211t-174 61q-82 0 -172 -37l100 160q65 22 129 22h6q164 0 287 -130t123 -298v-18q-12 -207 -157.5 -328t-387.5 -121q-172 0 -377 29q72 18 72 129v936 q0 61 -19.5 92t-66.5 53z" />
<glyph unicode="c" horiz-adv-x="851" d="M10 432l2 10q2 9 2 11q23 211 178.5 314t366.5 103q102 0 199 -22v-203q-88 88 -246 88q-125 0 -214 -76.5t-95 -232.5q18 -162 130.5 -242t260.5 -80q184 0 280 91l-102 -189q-100 -41 -225 -41q-211 0 -374 121t-163 348z" />
<glyph unicode="d" horiz-adv-x="1120" d="M29 438q6 78 32.5 155t76.5 149.5t139.5 117.5t203.5 45q160 0 277 -114v307q0 43 -13.5 62.5t-58.5 53.5q172 0 250 15v-1036q0 -45 3 -68t22.5 -54.5t60.5 -66.5h-250v467q0 150 -82 220.5t-194 70.5q-127 0 -196 -91t-69 -233q20 -147 107.5 -233t202.5 -86 q90 0 188 59l-117 -174q-57 -8 -104 -8q-82 0 -157 19.5t-149.5 64.5t-121.5 137t-51 221z" />
<glyph unicode="e" d="M33 424q0 74 27.5 149.5t80 145t143.5 114t205 44.5h25q184 0 304 -111t120 -313h-688q0 -125 87 -231.5t251 -117.5q6 0 24.5 -1t28.5 -1q176 0 297 105l-90 -174q-121 -57 -273 -58q-217 0 -379.5 131.5t-162.5 317.5zM250 573h483q-20 76 -102 129q-43 45 -131 46 q-84 0 -157 -46.5t-93 -128.5z" />
<glyph unicode="f" horiz-adv-x="512" d="M33 733l100 129v150q0 104 131 202q86 57 240 58q66 0 155 -15l-145 -145q-66 31 -108 31q-55 0 -84 -41t-29 -105v-135q207 0 250 15v-175q-29 31 -105 31h-145v-512q0 -152 88 -217h-334q86 58 86 146v583h-100z" />
<glyph unicode="g" horiz-adv-x="1120" d="M0 -170q0 78 55.5 117t124.5 39q39 0 67.5 -12.5t28.5 -28.5q-25 -2 -44 -30t-19 -60q0 -66 72.5 -118t226.5 -52q160 0 246 50t86 138q0 164 -359 164q-25 0 -71.5 -2t-65.5 -2q-2 0 -7 -2t-7 -2q-47 0 -89 41t-42 86q0 35 33.5 66.5t97.5 41.5q-106 31 -169 118 t-63 191q0 119 114 211.5t310 92.5h539q-12 -84 -42 -122t-87 -38q-18 0 -150 31q117 -92 117 -205q0 -102 -48 -167t-117.5 -88.5t-139.5 -35.5t-118 -25.5t-48 -42.5q2 -4 2 -6q0 -14 59.5 -18t145.5 -10.5t173 -26t151.5 -79.5t72.5 -157q0 -41 -10 -79.5t-44 -87 t-89 -84t-153.5 -59t-227.5 -23.5q-123 0 -233.5 28.5t-191.5 93t-87 154.5zM297 573q0 -76 65 -149q84 -76 166 -76q51 0 94.5 30t63.5 75q14 37 14 88q0 70 -46 128t-142 79q-109 0 -162 -49.5t-53 -125.5z" />
<glyph unicode="h" d="M4 4q100 33 100 160v905q0 117 -86 160h132q86 0 114 28v-481q29 45 116 79t179 34q127 0 215 -76t88 -240v-395q0 -55 14.5 -91t30 -50t45.5 -33h-336q33 14 50.5 40t19.5 46.5t2 59.5v382q0 33 -6 65t-23.5 73t-62.5 66.5t-111 25.5q-80 0 -144.5 -50t-64.5 -132 q0 -2 1.5 -9.5t1.5 -11.5v-381q0 -92 22.5 -121.5t93.5 -52.5h-391z" />
<glyph unicode="i" horiz-adv-x="475" d="M29 4q88 52 88 146v552q0 41 -9.5 72t-15.5 40t-26 30l-23 18q12 0 50 -2t59 -2q121 0 139 33v-741q0 -55 16.5 -84t69.5 -62h-348zM57 1098q0 51 34 76.5t83 25.5q131 0 131 -102q0 -61 -37 -97t-84 -36q-45 0 -83 36t-44 97z" />
<glyph unicode="j" horiz-adv-x="475" d="M-43 -401q160 88 160 303v815q0 37 -9.5 63.5t-16.5 35.5t-26.5 26.5t-21.5 19.5q27 0 79 -2t75 -2q80 0 108 19v-1004q0 -131 -94 -202.5t-219 -71.5h-35zM72 1083q0 45 27.5 74t64.5 29h24q49 0 83 -25.5t34 -77.5q0 -53 -36 -87.5t-81 -34.5q-41 0 -74.5 31.5 t-41.5 90.5z" />
<glyph unicode="k" horiz-adv-x="894" d="M8 4q101 33 101 160v905q0 43 -11.5 74t-26 48t-48.5 52q74 -6 118 -6q66 0 127 20v-1064q0 -66 29 -116t74 -73h-363zM297 485l235 263q27 29 27 53t-41 61h305l-334 -348l291 -364q78 -109 176 -146h-206q-43 0 -70 14.5t-59 57.5z" />
<glyph unicode="l" horiz-adv-x="475" d="M29 4q37 12 62.5 46t25.5 83v893q0 55 -3 89t-12.5 52.5t-16.5 25.5t-26.5 17.5t-29.5 18.5q27 0 76 -4t69 -4q78 0 117 36v-1064q0 -72 17.5 -115t68.5 -74h-348z" />
<glyph unicode="m" horiz-adv-x="1619" d="M18 4q59 29 72.5 61.5t13.5 98.5v467q0 90 -14 139t-57 92q25 0 71 -5t66 -5q61 0 109 25v-144q29 68 100.5 106t152.5 38q96 0 178.5 -46.5t108.5 -128.5q33 74 126 123t198 49q133 0 227 -91t94 -283v-367q0 -33 3 -52.5t28 -45t72 -31.5h-381q61 20 80.5 55t19.5 105 v350q-10 109 -72.5 165t-144.5 56q-76 0 -137.5 -48t-69.5 -128v-366q0 -154 90 -189h-336q4 2 15.5 9t16.5 11.5t14.5 11.5t13.5 13t10 16.5t9 21.5t5 27.5t2 35.5v274q0 160 -67.5 239.5t-159.5 79.5q-78 0 -137 -53t-59 -131v-395q0 -143 88 -160h-349z" />
<glyph unicode="n" d="M18 4q35 16 53.5 30.5t33 44.5t14.5 71v552q0 70 -17.5 103t-54.5 57q29 0 69 -2t54 -2q76 0 109 33v-143q37 66 115.5 103.5t166.5 37.5q127 0 221.5 -81t94.5 -233v-397q0 -84 18 -124t74 -50h-353q4 2 17.5 8t16.5 8.5t13.5 9.5t12.5 11t9 14.5t8 20.5t4 25.5t4 34 t1 42.5v381q0 90 -67.5 144.5t-153.5 54.5q-82 0 -143.5 -56.5t-61.5 -158.5q0 -2 1.5 -13.5t1.5 -15.5v-321q0 -88 23.5 -133.5t78.5 -55.5h-363z" />
<glyph unicode="o" horiz-adv-x="1046" d="M37 424q0 70 25.5 143.5t79 145t151.5 118t225 46.5h29q162 0 300 -119t138 -312v-22q0 -178 -128 -313.5t-353 -135.5q-227 0 -347 134.5t-120 314.5zM225 438q10 -156 86 -245t207 -89q137 0 210 90.5t73 215.5q0 131 -75 234.5t-198 103.5h-10q-41 0 -85 -12.5 t-94 -42t-82 -96.5t-32 -159z" />
<glyph unicode="p" horiz-adv-x="1120" d="M14 -373q103 33 103 144v944q0 111 -74 147q14 0 57 -2t64 -2q117 0 127 33v-129q47 55 132 89t179 34q164 0 287 -110.5t133 -336.5q0 -176 -122 -314t-316 -138q-84 0 -150 18l-115 174q121 -69 225 -69h3q102 0 181 63.5t101 194.5q0 10 2.5 28.5t2.5 28.5 q0 127 -73 225.5t-192 98.5q-147 0 -212.5 -67t-65.5 -228v-609q0 -94 17.5 -145t68.5 -72h-363z" />
<glyph unicode="q" horiz-adv-x="1120" d="M43 410q0 78 24.5 150.5t78 139t151.5 107.5t229 41h482q-45 -45 -58.5 -79t-13.5 -110v-872q0 -37 6 -64.5t15.5 -44t18.5 -25.5t19.5 -16.5t12.5 -9.5h-322q86 43 86 174v901q-135 23 -192 23q-326 0 -349 -301q8 -145 104.5 -235.5t225.5 -90.5q74 0 154 35l-88 -143 q-59 -14 -146 -15q-207 0 -322.5 133.5t-115.5 301.5z" />
<glyph unicode="r" horiz-adv-x="626" d="M47 4q33 10 59.5 55.5t26.5 90.5v552q0 49 -10 83t-22.5 49.5t-39.5 42.5q27 0 77 -1.5t73 -1.5q80 0 96 17v-129q70 123 207 123q29 0 74 -8v-175q-20 37 -92 37t-131.5 -64.5t-59.5 -195.5q0 -4 1 -13t1 -13v-275q0 -129 88 -174h-348z" />
<glyph unicode="s" horiz-adv-x="780" d="M8 207q66 -47 165 -80t185 -33q78 0 134.5 29t68.5 84v18q0 49 -80 88t-175 67t-175 92.5t-80 158.5q8 235 356 235h3q104 0 211 -18v-160q-135 55 -240 55t-141 -55q-14 -18 -15 -33q0 -37 80 -74.5t174 -68.5t174 -93.5t80 -142.5q0 -74 -55 -157q-51 -74 -151.5 -111 t-211.5 -37q-172 0 -249 62z" />
<glyph unicode="t" horiz-adv-x="626" d="M33 733v72q102 0 159.5 80t57.5 241h74v-278h129q90 0 120 14v-174q-23 45 -120 45h-129v-426q0 -94 54 -146t122 -52q49 0 88 24l-103 -143q-25 -4 -75 -4q-127 0 -186.5 78t-59.5 172v497h-131z" />
<glyph unicode="u" d="M18 862q96 -10 115 -10q78 0 146 25v-525q0 -100 59 -159.5t141 -59.5q70 0 131.5 50t77.5 141v378q0 70 -17.5 103t-54.5 57q72 -10 105 -10q86 0 141 25v-699q0 -55 14.5 -91t30 -50t45.5 -33h-264v129q-14 -68 -89 -109.5t-167 -41.5q-127 0 -224 75.5t-104 221.5v409 q0 51 -10 85t-21.5 45t-29.5 24.5t-25 19.5z" />
<glyph unicode="v" d="M-84 848q217 0 262 14l307 -669l217 481q14 31 15 80q0 76 -58 94h293l-438 -887q-53 27 -88 51.5t-64.5 66.5t-38.5 58t-44 84l-203 438q-27 55 -42.5 81t-46 56.5t-71.5 51.5z" />
<glyph unicode="w" horiz-adv-x="1468" d="M-29 848q203 0 232 29l246 -641l178 423q23 63 22 95q0 55 -51 94h246q0 -47 30 -131l191 -496l174 438q18 43 18 89q0 66 -47 100h250l-364 -873q-131 18 -207 232l-146 395l-247 -627q-49 6 -88 34t-56.5 52.5t-46.5 71.5l-233 569q-4 8 -18.5 41t-21.5 45.5t-23.5 31 t-37.5 28.5z" />
<glyph unicode="x" d="M-39 4l406 467q-16 20 -57.5 72.5t-61 76t-55 65.5t-60 66.5t-56.5 52t-59 44.5h203q37 0 86 -48t104.5 -117t88.5 -95l116 129q43 45 43 74q0 31 -43 57h322l-350 -377l231 -307q82 -104 178 -160h-178q-49 0 -78.5 11.5t-81.5 60.5l-206 276l-160 -188q-47 -61 -47 -92 q0 -39 61 -68h-346z" />
<glyph unicode="y" horiz-adv-x="968" d="M-104 -315l174 116q59 -41 108 -41q78 0 136 80t87 178q-43 43 -100 160l-246 524q-12 29 -25.5 50.5t-29.5 38t-22.5 22.5t-29 19.5t-24.5 15.5h160q55 0 82 -16.5t47 -69.5l266 -584l217 539q6 18 6 37q0 33 -25.5 59.5t-53.5 34.5h290l-391 -932q-2 -4 -15 -30.5 t-20.5 -38t-25 -39t-31.5 -42t-36.5 -38t-48.5 -37t-56.5 -27.5t-68.5 -20t-79 -6q-111 0 -245 47z" />
<glyph unicode="z" horiz-adv-x="851" d="M-29 4l510 713q-2 0 -14 -1t-18 -1q-18 0 -84 3t-105 3q-170 0 -246 -76l103 203h669l-495 -698q39 -2 137 -12.5t147 -10.5q170 0 299 80l-102 -203h-801z" />
<glyph unicode="{" horiz-adv-x="546" d="M23 514q66 10 111.5 51t45.5 94v424q10 51 35 83t64.5 44.5t68.5 15.5t80 3q-8 -4 -38 -18.5t-47 -27t-36.5 -50t-23.5 -93.5v-338q0 -80 -29 -123.5t-102 -64.5q70 -10 100.5 -56t30.5 -151v-289q0 -78 18 -119.5t41 -56t86 -41.5q-4 0 -22.5 -2t-28.5 -2 q-72 0 -130.5 43t-66.5 150v317v31q0 152 -157 176z" />
<glyph unicode="|" horiz-adv-x="1120" d="M481 4v1225h117v-1225h-117z" />
<glyph unicode="}" horiz-adv-x="546" d="M51 -213q84 31 115 81t31 150v306q0 47 2 67.5t14 47t39 43t74 32.5q-129 18 -129 188v324q0 147 -146 203q141 0 193.5 -50.5t52.5 -181.5v-295q0 -84 32.5 -124.5t112.5 -63.5q-35 -14 -54 -24.5t-44 -32t-36 -55t-11 -78.5v-334q0 -102 -56.5 -152.5t-150.5 -50.5h-39 z" />
<glyph unicode="~" horiz-adv-x="1120" d="M72 367q86 176 280 176q119 0 232 -58q96 -57 170 -57q121 0 168 131l86 -59q-115 -180 -260 -181q-70 0 -179 48q-156 68 -235 67q-121 0 -174 -127z" />
<glyph unicode="&#xa1;" horiz-adv-x="546" d="M119 762q0 35 32.5 63.5t73.5 36.5q123 0 146 -114v-15q0 -47 -39 -78.5t-88 -31.5q-47 0 -84 34t-37 91l-2 6q-2 6 -2 8zM137 -401l43 929h131l43 -800q0 -49 27 -76.5t80 -52.5h-324z" />
<glyph unicode="&#xa2;" horiz-adv-x="1046" d="M137 631q0 176 112.5 304t297.5 148v174h102v-174q100 0 160 -28v-178q-76 76 -160 75v-614q158 39 217 115l-43 -203q-86 -29 -174 -29v-174h-102v174q-51 0 -111.5 19.5t-126 62.5t-114 128t-58.5 200zM311 659q0 -90 62.5 -188.5t173.5 -118.5v600 q-106 -25 -165.5 -91t-70.5 -202z" />
<glyph unicode="&#xa3;" horiz-adv-x="1046" d="M123 104q0 80 54 117t138 37q86 1 160 -22q10 37 10 75q0 74 -28.5 154t-57.5 108h-188v101h100q-86 139 -86 264q0 121 89 203t276 88q160 0 219 -58l14 -188q-106 94 -239 94q-70 0 -118 -36.5t-48 -98.5q0 -51 43 -123l100 -145h219v-101h-145q47 -152 47 -215 q0 -98 -61 -180q72 -27 114 -26q82 0 174 55v-203q-109 -33 -184 -33q-113 0 -221 76q-78 -72 -203 -72q-76 0 -127 34t-51 95zM225 104q6 -20 20.5 -30.5t27 -11.5t38.5 -1q45 16 88 58q-57 37 -120 37q-54 -1 -54 -52z" />
<glyph unicode="&#xa4;" horiz-adv-x="1046" d="M23 905l143 150l74 -86q76 68 217 67q154 0 221 -67l86 71l131 -118l-72 -88q66 -104 66 -222q0 -102 -66 -217l72 -71l-131 -146l-72 86q-37 -31 -103.5 -51t-135.5 -20q-139 0 -213 71l-74 -86l-129 146l72 71q-72 102 -72 211q0 113 72 228zM225 631q0 -123 72 -186.5 t164 -63.5q113 0 174 64.5t61 152.5q0 94 -61.5 170t-159.5 80q-92 0 -166 -53t-84 -164z" />
<glyph unicode="&#xa5;" horiz-adv-x="1046" d="M-8 1243h205q59 0 88.5 -24.5t54.5 -75.5l266 -441l246 367q18 47 18 76q0 66 -61 98h321l-307 -452h236v-117h-295l-86 -115h381v-121h-381v-274q0 -86 102 -160h-395q53 27 78.5 53.5t25.5 75.5v305h-395v121h395l-75 115h-320v117h246l-217 335q-49 78 -131 117z" />
<glyph unicode="&#xa6;" horiz-adv-x="626" d="M485 4v1225h103v-1225h-103z" />
<glyph unicode="&#xa7;" d="M104 -10q135 -109 281 -109q86 0 148.5 40t68.5 97v19q0 63 -49 109.5t-120 78t-142.5 66.5t-125 98.5t-61.5 153.5q0 96 36 160.5t124 130.5q-76 51 -76 155.5t90.5 186t264.5 81.5q190 0 248 -43v-188q-100 100 -230 100q-68 0 -121 -28.5t-59 -57.5q0 -4 -4 -15 t-4 -13q0 -72 127 -135l174 -86q193 -102 192 -287q0 -76 -39 -148.5t-94 -105.5q63 -86 64 -203q0 -127 -94.5 -224t-292.5 -110q-197 0 -306 74v203zM287 602q0 -74 80 -131l278 -164q6 18 19.5 53t20.5 60.5t7 46.5q0 86 -149 178l-191 103q-66 -94 -65 -146z" />
<glyph unicode="&#xa8;" horiz-adv-x="851" d="M117 1098q0 53 34.5 84.5t79.5 31.5q47 0 82 -33.5t35 -97.5q0 -47 -37 -80.5t-82 -33.5q-43 0 -76.5 33t-35.5 96zM449 1098q0 43 34.5 72.5t75.5 29.5h25q45 0 80.5 -31.5t35.5 -85.5q-2 -57 -40.5 -89.5t-86.5 -32.5q-49 0 -86.5 37t-37.5 100z" />
<glyph unicode="&#xa9;" horiz-adv-x="1314" d="M8 655q0 94 37 194.5t108.5 197t198.5 159t287 66.5q113 0 226.5 -42t211 -120t157.5 -207t60 -287q0 -256 -178 -448.5t-463 -192.5q-115 0 -223 40t-202.5 117t-153 207t-64.5 292q0 4 -1 13t-1 11zM113 631q6 -98 40.5 -192.5t98 -177.5t171 -134t245.5 -51 q193 0 348 141t176 399v25q0 209 -159 369.5t-410 160.5q-76 0 -159 -31.5t-162 -94t-132 -171t-57 -243.5zM283 627q0 8 2 30.5t2 30.5q8 41 14 65.5t32.5 83t63.5 93.5t107.5 65.5t163.5 30.5q111 0 211 -59.5t110 -161.5l-119 -29q-23 162 -217 162h-12 q-104 0 -172 -102.5t-68 -229.5q0 -100 47.5 -177t131.5 -91q47 -14 75 -14q78 0 142.5 46t72.5 115l119 -14q-8 -31 -23.5 -62.5t-49 -71.5t-98 -68.5t-150.5 -32.5q-4 0 -13.5 -2.5t-13.5 -2.5q-166 0 -262 119t-96 277zM1294 1479z" />
<glyph unicode="&#xaa;" horiz-adv-x="743" d="M86 889l2 8l2 8q4 68 54.5 102.5t107.5 41t105.5 20.5t48.5 43q0 20 -11 45q-6 29 -76 29q-78 0 -169 -43l86 114q35 10 83 11q78 0 136.5 -41t58.5 -101v-188q0 -39 4 -60.5t19.5 -34t23.5 -14.5t41 -10l-59 -71q-133 0 -133 100v178q-29 -16 -89.5 -34.5t-94 -37 t-33.5 -49.5q0 -18 14 -43q23 -47 90 -47q55 0 98 33l-57 -86q-41 -27 -80 -27q-61 0 -116.5 47t-55.5 107zM90 528v103h512v-103h-512z" />
<glyph unicode="&#xab;" horiz-adv-x="743" d="M133 453l191 309h71l-131 -309l131 -289h-71zM367 453l192 309h72l-131 -309l131 -289h-72z" />
<glyph unicode="&#xac;" horiz-adv-x="1120" d="M102 514v117h877v-541h-121v424h-756z" />
<glyph unicode="&#xad;" horiz-adv-x="700" d="M10 381l117 119q2 2 7 8t9 8t12.5 6t23 5t34.5 1h266q49 0 129 31l15 -16l-101 -105q-20 -31 -42.5 -37t-78.5 -6h-217q-86 0 -159 -28z" />
<glyph unicode="&#xae;" horiz-adv-x="1314" d="M-8 608q0 10 2 28.5t2 22.5q6 98 49 201t121 197t209 154.5t293 60.5q150 0 274.5 -69.5t198 -174t113.5 -216.5t40 -210v-27q0 -223 -185 -418.5t-450 -195.5h-20q-143 2 -259 53.5t-186.5 125t-117.5 163.5t-65.5 166t-18.5 139zM109 631q0 -225 150.5 -397.5 t379.5 -172.5q209 0 374 141.5t165 385.5v28q-12 219 -146.5 380t-378.5 161q-139 0 -249.5 -52t-170 -129t-90 -152t-30.5 -136q0 -8 -2 -28.5t-2 -28.5zM373 236v776h381q250 0 250 -211v-39q0 -66 -59.5 -122t-149.5 -56q-4 0 -13.5 2t-13.5 2l221 -352h-133l-203 352 h-159v-352h-121zM494 674h231q2 0 7 -2t7 -2q68 0 114 41t46 90q0 43 -37 77.5t-108 43.5h-260v-248z" />
<glyph unicode="&#xaf;" horiz-adv-x="866" />
<glyph unicode="&#xb0;" horiz-adv-x="583" d="M80 1083q0 2 2 9l2 6q8 72 52 108.5t104 36.5h32q68 0 121 -41t53 -104v-19q0 -74 -56 -120t-130 -46q-70 0 -125 46.5t-55 123.5zM170 1083q0 -72 88 -100q39 0 69.5 27.5t30.5 87.5q0 37 -29.5 60.5t-64.5 23.5q-37 0 -64.5 -25t-29.5 -74z" />
<glyph unicode="&#xb1;" horiz-adv-x="913" d="M1602 -786z" />
<glyph unicode="&#xb2;" horiz-adv-x="913" d="M1602 -786z" />
<glyph unicode="&#xb3;" horiz-adv-x="913" d="M1602 -786z" />
<glyph unicode="&#xb4;" horiz-adv-x="743" d="M76 891l424 295l116 -131z" />
<glyph unicode="&#xb6;" d="M33 877q0 352 452 352h453q-55 -31 -74.5 -79t-19.5 -128q0 -12 2 -40t2 -44v-948q0 -168 90 -189h-236v1297h-174v-1297h-235q70 0 88 115v627q-117 0 -227.5 88t-120.5 246z" />
<glyph unicode="&#xb7;" horiz-adv-x="546" d="M109 645q0 82 52 128t122 46h28q70 0 117 -43t47 -117q-2 -92 -53 -138t-121 -46q-74 0 -133 48t-59 122z" />
<glyph unicode="&#xb8;" horiz-adv-x="626" d="M104 -258l60 59q82 -51 137 -51q45 0 51 37v16q0 37 -51 37q-6 0 -51 -10l-43 72l43 102h88l-45 -102q25 8 47 8q51 0 91 -26.5t40 -82.5v-12q0 -59 -49 -91t-117 -32q-61 0 -118.5 20.5t-82.5 55.5z" />
<glyph unicode="&#xb9;" horiz-adv-x="913" d="M1602 -786z" />
<glyph unicode="&#xba;" horiz-adv-x="743" d="M57 1004q0 96 78 167.5t203 71.5q129 0 199.5 -74.5t70.5 -175.5q0 -96 -64.5 -174t-176.5 -86q-4 0 -15.5 -2t-13.5 -2q-104 0 -190.5 69.5t-86.5 184.5q0 4 -2 11t-2 10zM61 528v103h541v-103h-541zM174 997q0 -6 2 -16t2 -12q10 -78 58.5 -121t115.5 -43q68 8 105 56 t37 114q0 76 -45.5 136t-114.5 60h-10q-72 -8 -111 -59t-39 -115z" />
<glyph unicode="&#xbb;" horiz-adv-x="743" d="M90 164l103 307l-103 291h60l202 -291l-202 -307h-60zM338 164l100 307l-100 291h57l207 -291l-207 -307h-57z" />
<glyph unicode="&#xbc;" horiz-adv-x="913" d="M1602 -786z" />
<glyph unicode="&#xbd;" horiz-adv-x="913" d="M1602 -786z" />
<glyph unicode="&#xbe;" horiz-adv-x="913" d="M1602 -786z" />
<glyph unicode="&#xbf;" horiz-adv-x="894" d="M94 -57q0 96 61.5 182t198.5 199q102 70 103 161q0 12 -15 74l148 14q23 -45 22 -102q0 -45 -25.5 -93t-49 -72.5t-82 -77t-70.5 -64.5q-92 -92 -92 -193q0 -74 56.5 -133t168.5 -82q4 0 18.5 -1t22.5 -1q127 0 279 76l-131 -203q-63 -18 -156 -18q-143 0 -269 60 t-173 175q-14 76 -15 99zM385 748q0 51 34 75.5t85 24.5h22q37 0 66 -27.5t29 -72.5v-23q0 -41 -37 -69.5t-84 -28.5t-81 32t-34 89z" />
<glyph unicode="&#xc0;" horiz-adv-x="1351" d="M0 4q133 92 160 203l352 891q10 31 10 51q0 45 -55 80h291l438 -1051q14 -31 33.5 -57.5t32 -39.5t40 -39t39.5 -38h-391q68 31 68 86q0 14 -4 30.5t-11.5 34t-9.5 23.5l-119 293h-454l-115 -321q-2 -6 -5 -18.5t-5 -21t-2 -12.5q0 -20 7 -32.5t32.5 -35t29.5 -26.5h-362 zM391 1421l105 146l440 -324zM467 602h348l-174 453z" />
<glyph unicode="&#xc1;" horiz-adv-x="1351" d="M0 4q133 92 160 203l352 891q10 31 10 51q0 45 -55 80h291l438 -1051q14 -31 33.5 -57.5t32 -39.5t40 -39t39.5 -38h-391q68 31 68 86q0 14 -4 30.5t-11.5 34t-9.5 23.5l-119 293h-454l-115 -321q-2 -6 -5 -18.5t-5 -21t-2 -12.5q0 -20 7 -32.5t32.5 -35t29.5 -26.5h-362 zM362 1257l424 295l117 -131zM467 602h348l-174 453z" />
<glyph unicode="&#xc2;" horiz-adv-x="1351" d="M0 4q133 92 160 203l352 891q10 31 10 51q0 45 -55 80h291l438 -1051q14 -31 33.5 -57.5t32 -39.5t40 -39t39.5 -38h-391q68 31 68 86q0 14 -4 30.5t-11.5 34t-9.5 23.5l-119 293h-454l-115 -321q-2 -6 -5 -18.5t-5 -21t-2 -12.5q0 -20 7 -32.5t32.5 -35t29.5 -26.5h-362 zM348 1272l322 309l309 -309q-170 0 -309 117q-59 -47 -148.5 -82t-173.5 -35zM467 602h348l-174 453z" />
<glyph unicode="&#xc3;" horiz-adv-x="1351" d="M0 4q133 92 160 203l352 891q10 31 10 51q0 45 -55 80h291l438 -1051q14 -31 33.5 -57.5t32 -39.5t40 -39t39.5 -38h-391q68 31 68 86q0 14 -4 30.5t-11.5 34t-9.5 23.5l-119 293h-454l-115 -321q-2 -6 -5 -18.5t-5 -21t-2 -12.5q0 -20 7 -32.5t32.5 -35t29.5 -26.5h-362 zM319 1300q39 113 79 155t114 42q43 0 158 -18q72 -14 102 -15q160 0 221 88q-2 -8 -14 -48t-17.5 -52t-19.5 -43t-27.5 -43t-36 -30.5t-51 -24.5t-63.5 -6q-10 0 -37 5t-41 5q-131 31 -190 31q-85 -1 -177 -46zM467 602h348l-174 453z" />
<glyph unicode="&#xc4;" horiz-adv-x="1351" d="M0 4q133 92 160 203l352 891q10 31 10 51q0 45 -55 80h291l438 -1051q14 -31 33.5 -57.5t32 -39.5t40 -39t39.5 -38h-391q68 31 68 86q0 14 -4 30.5t-11.5 34t-9.5 23.5l-119 293h-454l-115 -321q-2 -6 -5 -18.5t-5 -21t-2 -12.5q0 -20 7 -32.5t32.5 -35t29.5 -26.5h-362 zM377 1421q0 51 34.5 83t84.5 32q47 0 81.5 -34t34.5 -95q0 -49 -38.5 -83t-84 -34t-78 34t-34.5 97zM467 602h348l-174 453zM715 1421q0 45 31.5 73t72.5 28h25q47 0 84 -32t37 -83q-2 -57 -41 -90t-86 -33q-49 0 -86 37t-37 100z" />
<glyph unicode="&#xc5;" horiz-adv-x="1351" d="M-14 4q132 94 159 203l351 891q12 29 12 51q0 47 -59 80h294l439 -1051q14 -31 34.5 -58.5t29.5 -37.5t42 -41t39 -37h-391q68 31 68 86q0 14 -4.5 30.5t-11.5 34t-9 23.5l-121 293h-452l-115 -321q-2 -6 -5 -18.5t-5 -21t-2 -12.5q0 -20 7 -32.5t32.5 -35t29.5 -26.5 h-362zM449 602h352l-174 453zM465 1446q0 2 1 9t1 9q8 72 52 109t104 37h32q70 0 122 -41t52 -105v-14q0 -78 -57 -124t-131 -46q-68 0 -122 45t-54 121zM555 1450q0 -76 86 -104q41 0 71.5 28.5t30.5 89.5q0 37 -29.5 60.5t-64.5 23.5q-37 0 -64.5 -24.5t-29.5 -73.5z" />
<glyph unicode="&#xc6;" horiz-adv-x="1736" d="M-70 4q129 93 203 189l584 790q18 25 57 69t53.5 66.5t14.5 40.5q0 41 -66 70h570q133 0 190 14v-246q-61 86 -264 86h-160v-335h174q74 0 135 14v-219q-47 59 -178 59h-131v-424q188 -33 268 -33q203 0 330 119l-86 -260h-790q49 37 68.5 75t19.5 128v395h-291 l-307 -409q-47 -57 -48 -99q0 -59 91 -90h-437zM733 748h189v292z" />
<glyph unicode="&#xc7;" horiz-adv-x="1120" d="M14 573q0 129 30 243t98.5 217.5t199.5 163.5t313 60q174 0 353 -43v-217q-174 100 -367 101q-195 0 -302.5 -128t-107.5 -306q0 -94 32 -185.5t89.5 -166t149.5 -121t200 -46.5q6 0 21.5 2.5t19.5 2.5q70 0 133.5 15t104.5 31.5t115 53.5l-74 -217q-145 -57 -293 -58 q-94 0 -145 15l-29 -74q2 0 13.5 2t15.5 2q74 0 112.5 -32.5t38.5 -80.5q0 -53 -53 -100t-131 -47q-88 0 -189 68l58 88q78 -66 135 -66q25 0 39 14.5t14 32.5q0 20 -21.5 35.5t-58.5 15.5l-6 -2q-6 -2 -10 -2l-59 58l43 102q-221 41 -345.5 199.5t-136.5 369.5z" />
<glyph unicode="&#xc8;" d="M76 4q74 74 74 160v848q0 47 -2.5 73.5t-19.5 64.5t-52 64h598q59 0 88 15v-232q-63 76 -268 76q-102 0 -156 -4v-336h176q102 0 131 15v-205q-37 59 -174 59h-133v-438q205 -31 260 -31q199 0 340 117l-104 -246h-758zM236 1421l102 146l438 -324z" />
<glyph unicode="&#xc9;" d="M76 4q74 74 74 160v848q0 47 -2.5 73.5t-19.5 64.5t-52 64h598q59 0 88 15v-232q-63 76 -268 76q-102 0 -156 -4v-336h176q102 0 131 15v-205q-37 59 -174 59h-133v-438q205 -31 260 -31q199 0 340 117l-104 -246h-758zM193 1286l423 295l117 -131z" />
<glyph unicode="&#xca;" d="M90 4q74 72 74 160v848q0 47 -2 73.5t-19.5 64.5t-52.5 64h598q59 0 88 15v-232q-63 76 -268 76q-102 0 -156 -4v-336h176q102 0 131 15v-205q-37 59 -174 59h-133v-438q205 -31 260 -31q199 0 340 117l-104 -246h-758zM164 1286l321 309l306 -309q-164 0 -306 121 q-61 -49 -150 -85t-171 -36z" />
<glyph unicode="&#xcb;" d="M90 4q74 72 74 160v848q0 47 -2 73.5t-19.5 64.5t-52.5 64h598q59 0 88 15v-232q-63 76 -268 76q-102 0 -156 -4v-336h176q102 0 131 15v-205q-37 59 -174 59h-133v-438q205 -31 260 -31q199 0 340 117l-104 -246h-758zM193 1450q0 51 34.5 84t79.5 33q47 0 82 -35 t35 -96q0 -49 -37 -83t-82 -34q-43 0 -76.5 34t-35.5 97zM528 1450q0 45 33 73.5t74 28.5h24q45 0 81 -32.5t36 -83.5q-2 -57 -41 -90t-86 -33q-49 0 -85 37t-36 100z" />
<glyph unicode="&#xcc;" horiz-adv-x="512" d="M-10 1436l100 145l438 -324zM47 4q37 12 70 55.5t33 104.5v891q0 121 -89 174h363q-45 -35 -65.5 -75t-20.5 -114v-876q0 -45 36 -97.5t79 -62.5h-406z" />
<glyph unicode="&#xcd;" horiz-adv-x="512" d="M-39 1286l420 295l119 -131zM61 4q37 12 70 55.5t33 104.5v891q0 123 -88 174h362q-45 -35 -65.5 -75t-20.5 -114v-876q0 -45 37 -97.5t82 -62.5h-410z" />
<glyph unicode="&#xce;" horiz-adv-x="512" d="M-70 1286l320 309l309 -309q-168 0 -309 121q-57 -49 -146.5 -85t-173.5 -36zM47 4q37 12 70 55.5t33 104.5v891q0 121 -89 174h363q-45 -35 -65.5 -75t-20.5 -114v-876q0 -45 36 -97.5t79 -62.5h-406z" />
<glyph unicode="&#xcf;" horiz-adv-x="512" d="M-55 1464q0 51 35.5 84t80.5 33q47 0 82 -35t35 -96q0 -51 -37 -84t-84 -33q-41 0 -75.5 34t-36.5 97zM61 4q37 12 70 55.5t33 104.5v891q0 123 -88 174h362q-45 -35 -65.5 -75t-20.5 -114v-876q0 -45 37 -97.5t82 -62.5h-410zM279 1464q0 45 32.5 74t73.5 29h25 q49 0 83.5 -33t34.5 -84q-2 -57 -39.5 -90t-87 -33t-86 37t-36.5 100z" />
<glyph unicode="&#xd0;" horiz-adv-x="913" d="M1602 -786z" />
<glyph unicode="&#xd1;" horiz-adv-x="1351" d="M43 4q4 4 26.5 19.5t27.5 19.5t20.5 19.5t19.5 28.5t11.5 35.5t11.5 51.5v834q0 49 -6.5 85t-23.5 59.5t-25.5 32.5t-34 24.5t-27.5 15.5h276l746 -950v747q0 180 -115 203h363q-10 -8 -39 -24.5t-38 -27t-22.5 -45t-17.5 -92.5v-1095q-41 0 -104.5 43t-98.5 88l-702 893 v-776q0 -74 22.5 -115t77.5 -74h-348zM319 1315q39 113 79 154.5t114 41.5q61 0 158 -18q72 -14 102 -14q160 0 221 88q-2 -8 -14 -48t-17.5 -52.5t-19.5 -43t-27.5 -43t-36 -31t-51 -24.5t-63.5 -6q-12 0 -41 5t-37 7q-139 29 -190 29q-85 0 -177 -45z" />
<glyph unicode="&#xd2;" horiz-adv-x="1468" d="M29 602q0 106 36.5 214t112.5 210t215 166.5t322 64.5q293 0 483.5 -167.5t204.5 -458.5q0 -109 -41 -220.5t-118 -211t-208 -162t-293 -62.5q-326 0 -508.5 174t-205.5 453zM258 645q0 -2 1 -14.5t1 -14.5q0 -213 145.5 -355t337.5 -142q195 0 317 138t122 327v32 q-12 201 -143.5 355.5t-338.5 154.5q-172 0 -307 -129t-135 -352zM449 1436l106 145l438 -324z" />
<glyph unicode="&#xd3;" horiz-adv-x="1468" d="M29 602q0 106 36.5 214t112.5 210t215 166.5t322 64.5q293 0 483.5 -167.5t204.5 -458.5q0 -109 -41 -220.5t-118 -211t-208 -162t-293 -62.5q-326 0 -508.5 174t-205.5 453zM258 645q0 -2 1 -14.5t1 -14.5q0 -213 145.5 -355t337.5 -142q195 0 317 138t122 327v32 q-12 201 -143.5 355.5t-338.5 154.5q-172 0 -307 -129t-135 -352zM434 1286l424 295l121 -131z" />
<glyph unicode="&#xd4;" horiz-adv-x="1468" d="M43 616q0 106 37 214t112.5 210.5t215 167t321.5 64.5q293 0 485.5 -168t202.5 -459q0 -109 -41 -220.5t-117.5 -210.5t-207.5 -161.5t-293 -62.5q-326 0 -509 173.5t-206 452.5zM272 659q0 -2 2 -13t2 -15q0 -213 145.5 -355.5t336.5 -142.5q195 0 316.5 138.5 t121.5 326.5v33q-12 201 -143 356.5t-338 155.5q-172 0 -307.5 -130t-135.5 -354zM406 1300l323 310l307 -310q-170 0 -307 121q-59 -49 -148 -85t-175 -36z" />
<glyph unicode="&#xd5;" horiz-adv-x="1468" d="M29 602q0 106 36.5 214t112.5 210t215 166.5t322 64.5q293 0 483.5 -167.5t204.5 -458.5q0 -109 -41 -220.5t-118 -211t-208 -162t-293 -62.5q-326 0 -508.5 174t-205.5 453zM258 645q0 -2 1 -14.5t1 -14.5q0 -213 145.5 -355t337.5 -142q195 0 317 138t122 327v32 q-12 201 -143.5 355.5t-338.5 154.5q-172 0 -307 -129t-135 -352zM377 1331q39 111 79 153t113 42q61 0 160 -19q68 -14 100 -14q68 0 131.5 22.5t90.5 65.5q-2 -6 -12.5 -42t-14.5 -45t-15.5 -40t-20.5 -41t-26.5 -30.5t-36 -27.5t-45 -14.5t-57.5 -7.5q-12 0 -42.5 6.5 t-37.5 6.5q-139 29 -192 28q-82 0 -174 -43z" />
<glyph unicode="&#xd6;" horiz-adv-x="1468" d="M29 616q0 106 36.5 214t112.5 210.5t215 167t322 64.5q293 0 483.5 -168t204.5 -459q0 -109 -41 -220.5t-118 -210.5t-208 -161.5t-293 -62.5q-326 0 -508.5 173.5t-205.5 452.5zM258 659q0 -2 1 -13t1 -15q0 -213 145.5 -355.5t337.5 -142.5q195 0 317 138.5t122 326.5 v33q-12 201 -143.5 356.5t-338.5 155.5q-172 0 -307 -130t-135 -354zM420 1479q0 53 37 84.5t84 31.5t80.5 -34.5t33.5 -96.5q0 -49 -38.5 -82.5t-84.5 -33.5q-43 0 -76.5 34t-35.5 97zM758 1479q0 45 31.5 73.5t72.5 28.5h27q49 0 84 -32.5t35 -84.5q-2 -57 -41 -90 t-86 -33q-49 0 -86 37.5t-37 100.5z" />
<glyph unicode="&#xd7;" horiz-adv-x="1968" d="M29 659q0 264 194.5 438.5t446.5 174.5q143 0 278 -58.5t191 -144.5q10 14 10 33q0 31 -31 73t-67 68h512q145 0 188 14v-260q-53 100 -229 101q-45 0 -115 -7.5t-80 -7.5v-335h148q102 0 159 14v-203q-43 43 -174 43h-133v-424q113 -37 232 -37q205 0 385 123l-121 -260 h-772q102 66 102 146v28q-43 -90 -170 -146.5t-297 -56.5q-283 0 -470 186.5t-187 497.5zM244 635q0 -6 1 -17.5t1 -15.5q0 -47 13 -106.5t47 -127t81 -123t124 -92t167 -36.5q2 0 11 1t11 1q438 0 439 479v47q-4 68 -18.5 129.5t-48.5 128t-83 113.5t-132 78.5t-187 31.5 q-193 0 -309.5 -144t-116.5 -347z" />
<glyph unicode="&#xd8;" horiz-adv-x="1468" d="M43 631q8 147 63.5 262t133 182.5t176 111.5t182.5 59.5t164 15.5q16 0 45 -2.5t37 -2.5l59 179h133l-71 -222q158 -8 298 -187t140 -404v-50q-14 -133 -65.5 -240.5t-123 -174t-160.5 -112.5t-173 -64.5t-164 -18.5q-111 0 -162 27l-59 -174h-134l72 202 q-190 74 -290.5 236t-100.5 377zM244 635q-1 -240 237 -471l320 948q-25 4 -76 4q-121 0 -213 -47q-139 -66 -207 -207q-61 -109 -61 -227zM598 119q125 -16 135 -17q180 0 292 111t142 272q4 29 4 88q0 166 -67.5 309.5t-185.5 186.5z" />
<glyph unicode="&#xd9;" horiz-adv-x="1271" d="M47 1243h334q-23 -23 -40 -70t-17 -90v-659q0 -88 26.5 -150.5t69.5 -94.5t88 -46t94 -14q150 0 236 68.5t86 179.5v659q0 150 -90 217h352q-74 -72 -74 -217v-848q0 -72 18.5 -112.5t69.5 -61.5h-276v115q-2 -2 -29 -30t-46.5 -40t-58 -33.5t-93 -31t-124.5 -9.5 q-125 0 -218 38t-142 102.5t-71.5 134t-22.5 145.5v688q0 88 -72 160zM367 1436l104 145l434 -324z" />
<glyph unicode="&#xda;" horiz-adv-x="1271" d="M33 1243h334q-23 -23 -41.5 -70t-18.5 -90v-659q0 -88 26.5 -150.5t71 -94.5t89.5 -46t94 -14q150 0 233.5 68.5t83.5 179.5v659q0 154 -86 217h352q-74 -72 -73 -217v-848q0 -72 18.5 -112.5t69.5 -61.5h-281v115q-2 -2 -22.5 -24.5t-31.5 -33t-42 -30t-61.5 -29.5 t-80 -18.5t-108.5 -8.5q-125 0 -218 38t-142 102.5t-72 134t-23 145.5v688q0 88 -71 160zM338 1286l424 295l115 -131z" />
<glyph unicode="&#xdb;" horiz-adv-x="1271" d="M33 1243h334q-23 -23 -41.5 -70t-18.5 -90v-659q0 -88 26.5 -150.5t71 -94.5t89.5 -46t94 -14q150 0 233.5 68.5t83.5 179.5v659q0 154 -86 217h352q-74 -72 -73 -217v-848q0 -72 18.5 -112.5t69.5 -61.5h-281v115q-2 -2 -22.5 -24.5t-31.5 -33t-42 -30t-61.5 -29.5 t-80 -18.5t-108.5 -8.5q-125 0 -218 38t-142 102.5t-72 134t-23 145.5v688q0 88 -71 160zM293 1272l323 309l308 -309q-170 0 -308 117q-61 -47 -151 -82t-172 -35z" />
<glyph unicode="&#xdc;" horiz-adv-x="1271" d="M47 1243h334q-23 -23 -40 -70t-17 -90v-659q0 -88 26.5 -150.5t69.5 -94.5t88 -46t94 -14q150 0 236 68.5t86 179.5v659q0 150 -90 217h352q-74 -72 -74 -217v-848q0 -72 18.5 -112.5t69.5 -61.5h-276v115q-2 -2 -29 -30t-46.5 -40t-58 -33.5t-93 -31t-124.5 -9.5 q-125 0 -218 38t-142 102.5t-71.5 134t-22.5 145.5v688q0 88 -72 160zM324 1450q0 51 34.5 84t79.5 33q49 0 85 -35t36 -96q0 -49 -39 -83t-86 -34q-43 0 -75.5 34t-34.5 97zM659 1450q0 43 33 72.5t72 29.5h27q45 0 79.5 -32.5t34.5 -83.5q-2 -55 -40 -89t-85 -34 q-49 0 -85 37t-36 100z" />
<glyph unicode="&#xdd;" horiz-adv-x="913" d="M1602 -786z" />
<glyph unicode="&#xde;" horiz-adv-x="913" d="M1602 -786z" />
<glyph unicode="&#xdf;" d="M33 4q51 20 68.5 55t17.5 105v569h-72l72 115q0 4 -1 15t-1 18q0 152 89 264t251 112q166 -4 252 -77.5t86 -171.5q0 -76 -49.5 -145.5t-129.5 -100.5q-37 -20 -36 -41q0 -18 32.5 -38.5t87 -41t62.5 -25.5q102 -59 154.5 -148t52.5 -177q0 -127 -95.5 -220.5 t-242.5 -93.5q-102 0 -221 56l-43 188q139 -109 231 -108q49 0 90 20q94 41 94 135q0 47 -23.5 100.5t-56.5 84.5q-47 49 -109.5 84.5t-106.5 51t-74.5 40t-30.5 59.5q0 39 37 75t81 61.5t80.5 71.5t36.5 101.5t-46 89t-105 33.5q-70 0 -121 -50t-51 -148v-772q2 -10 7 -40 t9 -41.5t22.5 -31t49.5 -33.5h-348z" />
<glyph unicode="&#xe0;" horiz-adv-x="894" d="M23 250q0 178 170 235q47 16 206 43q80 14 130.5 47t50.5 70q0 49 -76 88q-41 20 -105 21q-43 0 -89 -10.5t-106.5 -32t-66.5 -23.5l146 189q12 0 52 4t64 4q47 0 91.5 -6.5t93.5 -25.5t83.5 -51t58.5 -85t24 -123v-301q0 -92 33.5 -133t125.5 -41l-86 -129 q-123 10 -185.5 58t-62.5 145v278q-27 -25 -90 -40t-119.5 -25.5t-103.5 -46t-51 -95.5q4 -68 57.5 -107.5t130.5 -39.5q57 0 148 33l-105 -146q-57 -8 -94 -8q-141 0 -233 75t-92 179zM180 1069l103 145l438 -323z" />
<glyph unicode="&#xe1;" horiz-adv-x="894" d="M8 236q0 178 170 235q47 16 207 43q80 14 130 47t50 70q0 49 -76 86q-39 23 -104 22q-43 0 -89 -10t-106.5 -31.5t-66.5 -23.5l145 188q12 0 52 4t65 4q47 0 91 -6t93 -25.5t84 -51t58.5 -85t23.5 -122.5v-301q0 -92 33 -133.5t127 -41.5l-86 -129q-123 10 -185.5 58.5 t-62.5 144.5v275q-27 -23 -90 -38.5t-119.5 -25.5t-103.5 -45t-51 -94q4 -68 57 -108t131 -40q51 0 147 31l-104 -143q-57 -8 -94 -8q-141 0 -233.5 75t-92.5 179zM152 905l423 295l117 -131z" />
<glyph unicode="&#xe2;" horiz-adv-x="894" d="M8 236q0 178 170 235q47 16 207 43q80 14 130 47t50 70q0 49 -76 86q-39 23 -104 22q-43 0 -89 -10t-106.5 -31.5t-66.5 -23.5l145 188q12 0 52 4t65 4q47 0 91 -6t93 -25.5t84 -51t58.5 -85t23.5 -122.5v-301q0 -92 33 -133.5t127 -41.5l-86 -129q-123 10 -185.5 58.5 t-62.5 144.5v275q-27 -23 -90 -38.5t-119.5 -25.5t-103.5 -45t-51 -94q4 -68 57 -108t131 -40q51 0 147 31l-104 -143q-57 -8 -94 -8q-141 0 -233.5 75t-92.5 179zM109 905l319 309l307 -309q-160 0 -307 121q-61 -49 -149 -85t-170 -36z" />
<glyph unicode="&#xe3;" horiz-adv-x="894" d="M8 250q0 178 170 235q47 16 207 43q80 14 130 47t50 70q0 49 -76 88q-41 20 -104 21q-43 0 -89 -10.5t-106.5 -32t-66.5 -23.5l145 189q12 0 52 4t65 4q47 0 91 -6.5t93 -25.5t84 -51t58.5 -85t23.5 -123v-301q0 -92 33 -133t127 -41l-86 -129q-123 10 -185.5 58 t-62.5 145v278q-27 -25 -90 -40t-119.5 -25.5t-103.5 -46t-51 -95.5q4 -68 57 -107.5t131 -39.5q57 0 147 33l-104 -146q-57 -8 -94 -8q-141 0 -233.5 75t-92.5 179zM109 969q39 111 77.5 150.5t114.5 39.5q55 0 160 -16q57 -16 100 -17q66 0 128.5 24t90.5 64 q-2 -8 -13 -41.5t-14 -45t-15.5 -39t-21.5 -39t-25.5 -31t-35 -26.5t-44 -14t-56.5 -7q-12 0 -43 6t-37 6q-139 29 -192 29q-82 0 -174 -43z" />
<glyph unicode="&#xe4;" horiz-adv-x="894" d="M8 236q0 178 170 235q47 16 207 43q80 14 130 47t50 70q0 49 -76 86q-39 23 -104 22q-43 0 -89 -10t-106.5 -31.5t-66.5 -23.5l145 188q12 0 52 4t65 4q47 0 91 -6t93 -25.5t84 -51t58.5 -85t23.5 -122.5v-301q0 -92 33 -133.5t127 -41.5l-86 -129q-123 10 -185.5 58.5 t-62.5 144.5v275q-27 -23 -90 -38.5t-119.5 -25.5t-103.5 -45t-51 -94q4 -68 57 -108t131 -40q51 0 147 31l-104 -143q-57 -8 -94 -8q-141 0 -233.5 75t-92.5 179zM137 1083q0 53 36 85t81 32q47 0 82 -35t35 -96q0 -47 -38 -82t-83 -35q-43 0 -77 34t-36 97zM475 1083 q0 45 32 74t73 29h26q45 0 80 -32t35 -85q-2 -57 -41 -90t-86 -33t-83 37t-36 100z" />
<glyph unicode="&#xe5;" horiz-adv-x="894" d="M8 236q0 178 170 235q47 16 207 43q80 14 130 47t50 70q0 49 -76 86q-39 23 -104 22q-43 0 -89 -10t-106.5 -31.5t-66.5 -23.5l145 188q12 0 52 4t65 4q47 0 91 -6t93 -25.5t84 -51t58.5 -85t23.5 -122.5v-301q0 -92 33 -133.5t127 -41.5l-86 -129q-123 10 -185.5 58.5 t-62.5 144.5v275q-27 -23 -90 -38.5t-119.5 -25.5t-103.5 -45t-51 -94q4 -68 57 -108t131 -40q51 0 147 31l-104 -143q-57 -8 -94 -8q-141 0 -233.5 75t-92.5 179zM236 1098q0 2 2 8l2 6q8 72 52 108.5t103 36.5h33q72 0 125 -40.5t53 -104.5v-14q0 -78 -57 -124t-131 -46 q-72 0 -127 46t-55 124zM326 1098q0 -72 88 -101q41 0 72.5 28t31.5 87q0 37 -30.5 60.5t-67.5 23.5t-64.5 -24.5t-29.5 -73.5z" />
<glyph unicode="&#xe6;" horiz-adv-x="1505" d="M-10 236v14q0 82 44 138t109.5 81t143.5 43t143.5 27.5t109.5 31t44 56.5q0 23 -11 47q-39 76 -163 76q-129 0 -291 -76l131 188q106 27 178 27q174 0 274 -113q127 109 306 109q168 0 290.5 -109.5t122.5 -290.5v-32h-659q23 -180 117 -264.5t227 -84.5q88 0 186.5 37 t171.5 95l-133 -203q-98 -57 -252 -58q-199 0 -354.5 115t-155.5 311q0 8 2 26.5t2 25.5q-41 -18 -149.5 -47t-169.5 -63t-61 -89q0 -14 14 -47q12 -35 62 -64.5t116 -29.5q104 0 231 80l-102 -175q-53 -37 -162 -36q-135 0 -248.5 70.5t-113.5 183.5zM776 573h438 q-18 76 -71 129q-66 45 -131 46q-84 0 -150 -46.5t-86 -128.5z" />
<glyph unicode="&#xe7;" horiz-adv-x="851" d="M0 438v33q12 106 61.5 187t124 129.5t163.5 73t188 24.5q104 0 206 -23v-203q-88 88 -247 89q-123 0 -212 -77t-96 -233q16 -162 129 -241.5t263 -79.5q184 0 278 90l-100 -189q-86 -37 -207 -36q-43 0 -117 8l-28 -74q6 0 19 2t17 2q68 0 105 -35t37 -84q0 -53 -46 -94 t-124 -41q-88 0 -197 62l59 73q68 -47 129.5 -47t61.5 43q0 18 -22.5 34.5t-59.5 16.5q-2 0 -10 -2t-13 -2l-57 58l43 102q-150 41 -249 159t-99 275z" />
<glyph unicode="&#xe8;" d="M33 424q0 74 27.5 149.5t80 145t143.5 114t205 44.5h25q184 0 304 -111t120 -313h-688q0 -125 87 -231.5t251 -117.5q6 0 24.5 -1t28.5 -1q176 0 297 105l-90 -174q-121 -57 -273 -58q-217 0 -379.5 131.5t-162.5 317.5zM221 1055l103 145l438 -323zM250 573h483 q-20 76 -102 129q-43 45 -131 46q-84 0 -157 -46.5t-93 -128.5z" />
<glyph unicode="&#xe9;" d="M18 424q0 74 28 149.5t80 145t143 114t206 44.5h25q184 0 303 -111t119 -313h-686q0 -125 87 -231.5t250 -117.5q6 0 24.5 -1t29.5 -1q176 0 295 105l-88 -174q-121 -57 -273 -58q-219 0 -381 130.5t-162 318.5zM193 922l423 292l117 -131zM236 573h481q-18 74 -101 129 q-43 45 -131 46q-84 0 -156.5 -46.5t-92.5 -128.5z" />
<glyph unicode="&#xea;" d="M18 424q0 74 28 149.5t80 145t143 114t206 44.5h25q184 0 303 -111t119 -313h-686q0 -125 87 -231.5t250 -117.5q6 0 24.5 -1t29.5 -1q176 0 295 105l-88 -174q-121 -57 -273 -58q-219 0 -381 130.5t-162 318.5zM150 905l321 309l305 -309q-162 0 -305 121 q-63 -49 -152 -85t-169 -36zM236 573h481q-18 74 -101 129q-43 45 -131 46q-84 0 -156.5 -46.5t-92.5 -128.5z" />
<glyph unicode="&#xeb;" d="M18 424q0 74 28 149.5t80 145t143 114t206 44.5h25q184 0 303 -111t119 -313h-686q0 -125 87 -231.5t250 -117.5q6 0 24.5 -1t29.5 -1q176 0 295 105l-88 -174q-121 -57 -273 -58q-219 0 -381 130.5t-162 318.5zM178 1083q0 53 35 85t80 32q47 0 82 -35t35 -96 q0 -47 -37 -82t-82 -35q-43 0 -77 34t-36 97zM236 573h481q-18 74 -101 129q-43 45 -131 46q-84 0 -156.5 -46.5t-92.5 -128.5zM514 1083q0 45 33 74t74 29h24q45 0 81 -32t36 -85q-2 -57 -41 -90t-86 -33q-49 0 -85 37t-36 100z" />
<glyph unicode="&#xec;" horiz-adv-x="475" d="M-29 1055l101 145l440 -323zM43 4q53 20 70.5 55t17.5 105v538q0 49 -10 82t-22.5 49.5t-41.5 43.5q8 0 25.5 -2.5t31 -3.5t23.5 -1q72 0 168 21v-727q0 -139 86 -160h-348z" />
<glyph unicode="&#xed;" horiz-adv-x="475" d="M-57 905l419 295l119 -131zM29 4q53 20 70.5 55t17.5 105v538q0 49 -11.5 83t-22.5 48.5t-40 43.5q8 0 25.5 -2.5t31 -3.5t23.5 -1q66 0 168 21v-727q0 -139 86 -160h-348z" />
<glyph unicode="&#xee;" horiz-adv-x="475" d="M-102 905l319 309l309 -309q-166 0 -309 121q-59 -47 -148 -84t-171 -37zM29 4q53 20 70.5 55t17.5 105v538q0 49 -11.5 83t-22.5 48.5t-40 43.5q8 0 25.5 -2.5t31 -3.5t23.5 -1q66 0 168 21v-727q0 -139 86 -160h-348z" />
<glyph unicode="&#xef;" horiz-adv-x="475" d="M-72 1083q0 53 35 85t80 32q47 0 82 -35t35 -96q0 -47 -38 -82t-83 -35q-41 0 -75 34t-36 97zM43 4q53 20 70.5 55t17.5 105v538q0 49 -10 82t-22.5 49.5t-41.5 43.5q8 0 25.5 -2.5t31 -3.5t23.5 -1q72 0 168 21v-727q0 -139 86 -160h-348zM260 1083q0 45 33 74t74 29h24 q47 0 84 -32t37 -85q-2 -57 -41 -90t-86 -33q-49 0 -87 37t-38 100z" />
<glyph unicode="&#xf0;" horiz-adv-x="913" d="M1602 -786z" />
<glyph unicode="&#xf1;" d="M4 4q35 16 53.5 30.5t32.5 44.5t14 71v552q0 70 -17 103t-54 57q29 0 68.5 -2t54.5 -2q76 0 108 33v-143q37 66 116 103.5t167 37.5q127 0 221 -81t94 -233v-397q0 -84 18.5 -124t71.5 -50h-350q4 2 17.5 8t16.5 8.5t13 9.5t12.5 11t9.5 14.5t8 20.5t4 25.5t4 34t1 42.5 v381q0 90 -67.5 144.5t-153.5 54.5q-82 0 -144.5 -56.5t-62.5 -158.5q0 -2 2 -13.5t2 -15.5v-321q0 -88 23.5 -133.5t79.5 -55.5h-363zM150 952q37 111 76.5 152t113.5 41q61 0 160 -19q68 -14 102 -14q66 0 127.5 23.5t89.5 64.5q-2 -8 -14 -48t-17.5 -51t-18.5 -42 t-26.5 -43t-35 -29.5t-48 -24t-61.5 -6.5q-10 0 -23.5 2.5t-32 5.5t-28.5 5q-135 29 -190 28q-86 0 -174 -45z" />
<glyph unicode="&#xf2;" horiz-adv-x="1046" d="M37 438q0 70 25.5 143.5t79 145.5t151.5 118t225 46h29q162 0 300 -119t138 -311v-23q0 -178 -128 -313t-353 -135q-227 0 -347 134t-120 314zM225 453q10 -156 86 -245t207 -89q137 0 210 90t73 215q0 131 -75 234.5t-198 103.5h-10q-41 0 -85 -12.5t-94 -42t-82 -96 t-32 -158.5zM254 1069l100 145l441 -323z" />
<glyph unicode="&#xf3;" horiz-adv-x="1046" d="M37 438q0 70 25.5 143.5t79 145.5t151.5 118t225 46h29q162 0 300 -119t138 -311v-23q0 -178 -128 -313t-353 -135q-227 0 -347 134t-120 314zM225 453q10 -156 86 -245t207 -89q137 0 210 90t73 215q0 131 -75 234.5t-198 103.5h-10q-41 0 -85 -12.5t-94 -42t-82 -96 t-32 -158.5zM225 922l424 292l115 -131z" />
<glyph unicode="&#xf4;" horiz-adv-x="1046" d="M37 438q0 70 25.5 143.5t79 145.5t151.5 118t225 46h29q162 0 300 -119t138 -311v-23q0 -178 -128 -313t-353 -135q-227 0 -347 134t-120 314zM180 922l324 307l305 -307q-162 0 -305 118q-63 -47 -152.5 -82.5t-171.5 -35.5zM225 453q10 -156 86 -245t207 -89 q137 0 210 90t73 215q0 131 -75 234.5t-198 103.5h-10q-41 0 -85 -12.5t-94 -42t-82 -96t-32 -158.5z" />
<glyph unicode="&#xf5;" horiz-adv-x="1046" d="M37 438q0 70 25.5 143.5t79 145.5t151.5 118t225 46h29q162 0 300 -119t138 -311v-23q0 -178 -128 -313t-353 -135q-227 0 -347 134t-120 314zM166 969q39 111 79 150.5t113 39.5q55 0 160 -16q57 -16 103 -17q66 0 127 24t90 64q-2 -6 -14.5 -47t-17.5 -52t-19.5 -43 t-28 -43t-35 -28.5t-49 -23.5t-62.5 -6q-12 0 -42.5 6t-37.5 6q-135 29 -192 29q-82 0 -174 -43zM225 453q10 -156 86 -245t207 -89q137 0 210 90t73 215q0 131 -75 234.5t-198 103.5h-10q-41 0 -85 -12.5t-94 -42t-82 -96t-32 -158.5z" />
<glyph unicode="&#xf6;" horiz-adv-x="1046" d="M23 438q0 70 25.5 143.5t78.5 145.5t151.5 118t225.5 46h28q162 0 300.5 -119t138.5 -311v-23q0 -178 -128 -313t-354 -135q-227 0 -346.5 134t-119.5 314zM211 453q10 -156 86 -245t207 -89q137 0 209.5 89t72.5 216q0 131 -74.5 234.5t-197.5 103.5h-10 q-41 0 -85 -12.5t-94.5 -42t-82 -96t-31.5 -158.5zM211 1098q0 53 35 84.5t80 31.5q47 0 81.5 -33.5t34.5 -97.5q0 -47 -36.5 -80.5t-81.5 -33.5q-43 0 -77 33t-36 96zM547 1098q0 45 32.5 73.5t73.5 28.5h25q45 0 81 -31.5t36 -85.5q-2 -57 -41 -89.5t-86 -32.5 q-49 0 -85 37t-36 100z" />
<glyph unicode="&#xf7;" horiz-adv-x="1736" d="M18 453q4 104 42 185t92.5 128t125 75.5t131 39t119.5 10.5q121 0 222.5 -50t154.5 -139q25 39 44.5 62.5t62.5 57.5t108.5 51.5t151.5 17.5q186 0 290.5 -136.5t104.5 -275.5v-26h-655q0 -156 95 -248t239 -92q168 0 321 123l-100 -189q-29 -29 -98.5 -47t-149.5 -18 q-123 0 -238.5 47t-189.5 149q-129 -201 -373 -201q-190 0 -343 134.5t-157 341.5zM221 453q0 -37 4 -73t21.5 -84t46.5 -83t82 -62.5t125 -31.5q137 0 221 70.5t84 205.5q0 145 -79 256t-212 111q-84 0 -144.5 -31t-91 -80t-44 -98t-13.5 -100zM1012 588h452 q-16 47 -75 100q-29 45 -117 74q-182 0 -260 -174z" />
<glyph unicode="&#xf8;" horiz-adv-x="1046" d="M18 467q0 8 2.5 25.5t2.5 21.5q14 106 65 185t126 122t159 63.5t178 20.5h55l58 164h116l-73 -192q129 -53 203.5 -170t74.5 -254q0 -201 -145.5 -329t-339.5 -128q-35 0 -101 8l-59 -188h-115l72 217q-100 41 -167 123t-89.5 159.5t-22.5 151.5zM213 471q0 -82 34 -163 t93 -130l207 584q-10 0 -30.5 1t-27.5 1q-80 0 -178 -47q-61 -61 -86 -158q-12 -80 -12 -88zM442 119q6 0 17.5 -1t15.5 -1q133 0 208 71.5t97 178.5v43q0 100 -37.5 190t-93.5 117z" />
<glyph unicode="&#xf9;" d="M18 862q96 -10 115 -10q78 0 146 25v-525q0 -100 59 -159.5t141 -59.5q70 0 131.5 50t77.5 141v378q0 70 -17.5 103t-54.5 57q72 -10 105 -10q86 0 141 25v-699q0 -55 14.5 -91t30 -50t45.5 -33h-264v129q-14 -68 -89 -109.5t-167 -41.5q-127 0 -224 75.5t-104 221.5v409 q0 51 -10 85t-21.5 45t-29.5 24.5t-25 19.5zM236 1083l102 146l438 -324z" />
<glyph unicode="&#xfa;" d="M18 862q96 -10 115 -10q78 0 146 25v-525q0 -100 59 -159.5t141 -59.5q70 0 131.5 50t77.5 141v378q0 70 -17.5 103t-54.5 57q72 -10 105 -10q86 0 141 25v-699q0 -55 14.5 -91t30 -50t45.5 -33h-264v129q-14 -68 -89 -109.5t-167 -41.5q-127 0 -224 75.5t-104 221.5v409 q0 51 -10 85t-21.5 45t-29.5 24.5t-25 19.5zM207 922l424 292l117 -131z" />
<glyph unicode="&#xfb;" d="M18 862q96 -10 115 -10q78 0 146 25v-525q0 -100 59 -159.5t141 -59.5q70 0 131.5 50t77.5 141v378q0 70 -17.5 103t-54.5 57q72 -10 105 -10q86 0 141 25v-699q0 -55 14.5 -91t30 -50t45.5 -33h-264v129q-14 -68 -89 -109.5t-167 -41.5q-127 0 -224 75.5t-104 221.5v409 q0 51 -10 85t-21.5 45t-29.5 24.5t-25 19.5zM164 938l321 305l306 -305q-162 0 -306 117q-63 -47 -152 -82t-169 -35z" />
<glyph unicode="&#xfc;" d="M33 862q96 -10 117 -10q76 0 143 25v-525q0 -100 59.5 -159.5t141.5 -59.5q70 0 131 50t77 141v378q0 70 -17 103t-54 57q72 -10 104 -10q86 0 142 25v-699q0 -55 15 -92t30.5 -49t46.5 -33h-267v129q-12 -68 -86.5 -109.5t-169.5 -41.5q-127 0 -224 75.5t-103 221.5v409 q0 51 -10.5 85t-21.5 45t-29.5 24.5t-24.5 19.5zM207 1112q0 53 34.5 85t82 32t81 -35t33.5 -96q0 -47 -36.5 -81t-82.5 -34q-43 0 -76.5 33t-35.5 96zM543 1112q0 45 32.5 73.5t73.5 28.5h25q47 0 82 -31.5t35 -84.5q-2 -53 -41 -86t-86.5 -33t-84 36t-36.5 97z" />
<glyph unicode="&#xfd;" horiz-adv-x="913" d="M1602 -786z" />
<glyph unicode="&#xfe;" horiz-adv-x="913" d="M1602 -786z" />
<glyph unicode="&#xff;" horiz-adv-x="968" d="M-104 -301l174 117q59 -41 108 -41q78 0 136 80t87 178q-43 43 -100 160l-246 524q-12 29 -25.5 50t-29.5 37.5t-22.5 23t-29 19.5t-24.5 15h160q55 0 82 -16.5t47 -69.5l266 -583l217 540q6 16 6 35q0 33 -25.5 59.5t-53.5 34.5h290l-391 -932q-2 -4 -15 -30.5 t-20.5 -38t-25 -39t-31.5 -41.5t-36.5 -38t-48.5 -37t-56.5 -27.5t-68.5 -20.5t-79 -6q-111 0 -245 47zM156 1112q0 53 34.5 85t81.5 32t81 -35t34 -96q0 -47 -37 -81t-82 -34q-43 0 -76.5 33t-35.5 96zM494 1112q0 45 31.5 73.5t72.5 28.5h25q47 0 81.5 -31.5t34.5 -84.5 q-2 -53 -41 -86t-86 -33t-82.5 36t-35.5 97z" />
<glyph unicode="&#x152;" horiz-adv-x="866" />
<glyph unicode="&#x153;" horiz-adv-x="866" />
<glyph unicode="&#x178;" horiz-adv-x="968" d="M-104 -301l174 117q59 -41 108 -41q78 0 136 80t87 178q-43 43 -100 160l-246 524q-12 29 -25.5 50t-29.5 37.5t-22.5 23t-29 19.5t-24.5 15h160q55 0 82 -16.5t47 -69.5l266 -583l217 540q6 16 6 35q0 33 -25.5 59.5t-53.5 34.5h290l-391 -932q-2 -4 -15 -30.5 t-20.5 -38t-25 -39t-31.5 -41.5t-36.5 -38t-48.5 -37t-56.5 -27.5t-68.5 -20.5t-79 -6q-111 0 -245 47zM156 1112q0 53 34.5 85t81.5 32t81 -35t34 -96q0 -47 -37 -81t-82 -34q-43 0 -76.5 33t-35.5 96zM494 1112q0 45 31.5 73.5t72.5 28.5h25q47 0 81.5 -31.5t34.5 -84.5 q-2 -53 -41 -86t-86 -33t-82.5 36t-35.5 97z" />
<glyph unicode="&#x2c6;" horiz-adv-x="1120" d="M102 471l379 743h117l381 -743h-121l-317 627l-324 -627h-115z" />
<glyph unicode="&#x2dc;" horiz-adv-x="1120" d="M72 367q86 176 280 176q119 0 232 -58q96 -57 170 -57q121 0 168 131l86 -59q-115 -180 -260 -181q-70 0 -179 48q-156 68 -235 67q-121 0 -174 -127z" />
<glyph unicode="&#x2000;" horiz-adv-x="805" />
<glyph unicode="&#x2001;" horiz-adv-x="1610" />
<glyph unicode="&#x2002;" horiz-adv-x="805" />
<glyph unicode="&#x2003;" horiz-adv-x="1610" />
<glyph unicode="&#x2004;" horiz-adv-x="536" />
<glyph unicode="&#x2005;" horiz-adv-x="402" />
<glyph unicode="&#x2006;" horiz-adv-x="268" />
<glyph unicode="&#x2007;" horiz-adv-x="268" />
<glyph unicode="&#x2008;" horiz-adv-x="201" />
<glyph unicode="&#x2009;" horiz-adv-x="322" />
<glyph unicode="&#x200a;" horiz-adv-x="89" />
<glyph unicode="&#x2010;" horiz-adv-x="700" d="M10 381l117 119q2 2 7 8t9 8t12.5 6t23 5t34.5 1h266q49 0 129 31l15 -16l-101 -105q-20 -31 -42.5 -37t-78.5 -6h-217q-86 0 -159 -28z" />
<glyph unicode="&#x2011;" horiz-adv-x="700" d="M10 381l117 119q2 2 7 8t9 8t12.5 6t23 5t34.5 1h266q49 0 129 31l15 -16l-101 -105q-20 -31 -42.5 -37t-78.5 -6h-217q-86 0 -159 -28z" />
<glyph unicode="&#x2012;" horiz-adv-x="700" d="M10 381l117 119q2 2 7 8t9 8t12.5 6t23 5t34.5 1h266q49 0 129 31l15 -16l-101 -105q-20 -31 -42.5 -37t-78.5 -6h-217q-86 0 -159 -28z" />
<glyph unicode="&#x2013;" horiz-adv-x="866" />
<glyph unicode="&#x2014;" horiz-adv-x="866" />
<glyph unicode="&#x2018;" horiz-adv-x="1851" d="M174 102q0 49 35 77t84 28t90 -33t41 -84q0 -55 -38 -87t-85 -32t-84 29t-39 76q0 4 -2 13t-2 13zM786 102q0 49 35 77t84 28q51 0 93 -33t42 -84q0 -55 -37.5 -87t-89.5 -32q-47 0 -83.5 29t-38.5 76q0 4 -2.5 13t-2.5 13zM1417 102q0 49 35 77t84 28t90 -33t41 -84 q0 -55 -38 -87t-85 -32t-84 29t-39 76q0 4 -2 13t-2 13z" />
<glyph unicode="&#x2019;" horiz-adv-x="2156" d="M4 895q0 164 84 263t195 99q125 0 216 -96t91 -299q0 -41 -3 -77.5t-19.5 -93t-44 -97.5t-82 -73t-130.5 -36q-82 0 -144.5 42t-95 104.5t-48 122t-15.5 108.5q0 6 -2 17.5t-2 15.5zM123 877q0 -117 45 -203t143 -86q82 0 123 85t41 204q0 111 -51 195.5t-127 84.5h-14 q-72 0 -116 -89t-44 -191zM340 4l602 1225h117l-598 -1225h-121zM809 381q0 162 85 264.5t208 102.5q145 0 226 -100.5t81 -295.5q0 -184 -87 -287.5t-206 -103.5q-147 0 -227 122t-80 298zM928 352q25 -291 188 -291q78 0 119 81t41 196q0 125 -50 223t-130 98h-9 q-68 0 -113.5 -88t-45.5 -219zM1497 352q0 98 25.5 182t98.5 149t181 65q119 0 201 -96.5t92 -284.5q0 -37 -6 -82t-26.5 -104.5t-52.5 -106.5t-89 -80t-133 -33q-72 0 -131.5 40t-92 101.5t-50 127t-17.5 122.5zM1628 338q23 -276 189 -277q70 0 108.5 82t38.5 197 q0 123 -45 214t-125 91h-6q-72 0 -116 -94t-44 -213z" />
<glyph unicode="&#x201a;" horiz-adv-x="866" />
<glyph unicode="&#x201c;" horiz-adv-x="1736" d="M-25 1126v103h584v-103h-235v-598h-117v598h-232zM674 528v701h174l207 -481l188 481h193v-701h-121v555l-232 -555h-57l-235 555v-555h-117z" />
<glyph unicode="&#x201d;" horiz-adv-x="512" d="M90 848v381h103v-381h-103zM293 848v381h102v-381h-102z" />
<glyph unicode="&#x201e;" horiz-adv-x="866" />
<glyph unicode="&#x2022;" horiz-adv-x="743" d="M104 1069l103 145l438 -323z" />
<glyph unicode="&#x2026;" horiz-adv-x="866" />
<glyph unicode="&#x202f;" horiz-adv-x="322" />
<glyph unicode="&#x2039;" horiz-adv-x="1120" d="M72 381v119l921 405v-114l-790 -353l790 -377v-116z" />
<glyph unicode="&#x203a;" horiz-adv-x="1120" d="M-686 1055zM57 -39v115l801 362l-801 353v131l951 -437v-104z" />
<glyph unicode="&#x205f;" horiz-adv-x="402" />
<glyph unicode="&#x2122;" horiz-adv-x="866" />
<glyph unicode="&#xe000;" horiz-adv-x="849" d="M0 0v850h850v-850h-850z" />
<glyph unicode="&#xfb01;" horiz-adv-x="866" />
<glyph unicode="&#xfb02;" horiz-adv-x="866" />
</font>
</defs>
</svg>
